<svg xmlns="http://www.w3.org/2000/svg" width="15" height="13" fill="none"><path fill="#46BF40" d="M8.936 12.543c-.145-.093-.309-.163-.432-.282-.403-.388-.392-1.022.02-1.459C9.53 9.734 10.54 8.67 11.55 7.606c.06-.065.133-.117.2-.173l-.025-.07h-.264c-6.445 0-3.845-.004-10.29.007C.589 7.37.19 7.162 0 6.567v-.4c.189-.597.59-.804 1.17-.802 6.437.01 3.828.007 10.266.007h.335c-.095-.105-.155-.174-.218-.24A3964.921 3964.921 0 0 0 8.51 1.918 1.018 1.018 0 0 1 8.25.914c.097-.373.34-.61.697-.697.36-.087.657.043.914.315 1.412 1.494 2.827 2.984 4.241 4.477.2.211.403.418.598.634.396.436.406 1.016.002 1.444a1163.43 1163.43 0 0 1-4.893 5.159c-.123.129-.298.2-.45.298h-.422v-.002Z"/></svg>