<svg xmlns="http://www.w3.org/2000/svg" width="41" height="41" fill="none"><circle cx="20.556" cy="20.669" r="20" fill="#CCC"/><path fill="#fff" d="M18.115 14.617c-.448.597-.663 1.395-.644 2.393h-3.723c.037-1.008.21-1.964.517-2.87.327-.793.84-1.525 1.54-2.197a5.366 5.366 0 0 1 1.862-1.092c.719-.252 1.6-.378 2.646-.378 1.94 0 3.504.504 4.69 1.512 1.194.998 1.791 2.342 1.791 4.032 0 1.194-.355 2.202-1.064 3.023-.448.513-.914.863-1.4 1.05.364 0 .887.313 1.568.938 1.017.943 1.526 2.23 1.526 3.864 0 1.717-.597 3.229-1.792 4.535-1.185 1.297-2.944 1.946-5.277 1.946-2.875 0-4.872-.938-5.992-2.814-.588-.998-.914-2.305-.98-3.92h3.92c0 .813.13 1.484.392 2.016.485.98 1.367 1.47 2.646 1.47.784 0 1.465-.266 2.044-.798.587-.541.881-1.316.881-2.324 0-1.334-.54-2.225-1.623-2.673-.616-.252-1.587-.378-2.912-.378v-2.856c1.297-.018 2.202-.145 2.716-.378.886-.392 1.33-1.185 1.33-2.38 0-.774-.23-1.404-.686-1.89-.448-.485-1.083-.727-1.904-.727-.943 0-1.633.298-2.072.896Z"/></svg>