<svg xmlns="http://www.w3.org/2000/svg" width="41" height="40" fill="none"><circle cx="20.526" cy="20" r="20" fill="#CCC"/><path fill="#fff" d="M22.564 14.032c-.476-.57-1.157-.854-2.044-.854-1.213 0-2.039.452-2.478 1.358-.252.522-.4 1.353-.448 2.491h-3.877c.065-1.726.378-3.121.938-4.185 1.064-2.025 2.953-3.038 5.67-3.038 2.146 0 3.853.597 5.123 1.792 1.269 1.185 1.903 2.758 1.903 4.717 0 1.503-.448 2.838-1.343 4.004-.588.775-1.554 1.638-2.898 2.59l-1.596 1.134c-.998.709-1.684 1.222-2.058 1.54a4.593 4.593 0 0 0-.924 1.105h8.861V30.2h-13.9c.037-1.456.35-2.786.938-3.99.57-1.353 1.913-2.785 4.031-4.297 1.839-1.316 3.029-2.259 3.57-2.828.83-.886 1.246-1.857 1.246-2.912 0-.858-.238-1.572-.714-2.141Z"/></svg>