<svg width="105" height="20" viewBox="0 0 105 20" fill="none" xmlns="http://www.w3.org/2000/svg">
<path fill-rule="evenodd" clip-rule="evenodd" d="M17.4995 0H2.5C1.11929 0 0 1.11929 0 2.5V14.3598C0 15.4454 0.880079 16.3255 1.96571 16.3255H2.09601C3.10968 16.3255 3.93143 17.1473 3.93143 18.1609C3.93143 19.7701 5.85473 20.6003 7.02571 19.4966L9.66796 17.0062C10.1318 16.569 10.7452 16.3255 11.3827 16.3255H17.4995C18.8802 16.3255 19.9995 15.2062 19.9995 13.8255V2.5C19.9995 1.11929 18.8802 0 17.4995 0ZM8.3327 3.76709C8.3327 3.21481 8.78042 2.76709 9.3327 2.76709H10.6659C11.2182 2.76709 11.6659 3.21481 11.6659 3.76709V11.7284C11.6659 12.2807 11.2182 12.7284 10.6659 12.7284H9.3327C8.78042 12.7284 8.3327 12.2807 8.3327 11.7284V3.76709ZM3.88843 7.0874C3.88843 6.53512 4.33614 6.0874 4.88843 6.0874H6.22167C6.77396 6.0874 7.22167 6.53512 7.22167 7.0874V11.7283C7.22167 12.2806 6.77395 12.7283 6.22167 12.7283H4.88843C4.33614 12.7283 3.88843 12.2806 3.88843 11.7283V7.0874ZM13.7773 8.30054C13.225 8.30054 12.7773 8.74825 12.7773 9.30054V11.7278C12.7773 12.2801 13.225 12.7278 13.7773 12.7278H15.1105C15.6628 12.7278 16.1105 12.2801 16.1105 11.7278V9.30054C16.1105 8.74825 15.6628 8.30054 15.1105 8.30054H13.7773Z" fill="#AAAAAA"/>
<path fill-rule="evenodd" clip-rule="evenodd" d="M77.5716 4.1606C77.4722 4.05353 77.3421 4 77.1815 4C77.0209 4 76.8909 4.05353 76.7915 4.1606C76.6921 4.26002 76.6424 4.39004 76.6424 4.55064V7.24647C76.4282 6.9788 76.1491 6.76084 75.8049 6.59259C75.4608 6.42434 75.0861 6.34021 74.6807 6.34021C74.176 6.34021 73.7133 6.47405 73.2927 6.74172C72.872 7.00939 72.5393 7.38413 72.2946 7.86594C72.0575 8.3401 71.939 8.87545 71.939 9.47197C71.939 10.0685 72.0614 10.6077 72.3061 11.0895C72.5508 11.5636 72.8835 11.9346 73.3041 12.2022C73.7247 12.4699 74.1951 12.6037 74.7151 12.6037C75.1128 12.6037 75.4837 12.5081 75.8279 12.3169C76.1797 12.1257 76.4512 11.8925 76.6424 11.6172V11.9384C76.6424 12.099 76.6921 12.2328 76.7915 12.3399C76.8909 12.4393 77.0209 12.489 77.1815 12.489C77.3421 12.489 77.4722 12.4355 77.5716 12.3284C77.6786 12.2213 77.7322 12.0913 77.7322 11.9384V4.55064C77.7322 4.39004 77.6786 4.26002 77.5716 4.1606ZM75.7935 11.3189C75.5182 11.5025 75.2008 11.5942 74.8413 11.5942C74.4819 11.5942 74.1607 11.5025 73.8777 11.3189C73.6024 11.1354 73.3844 10.883 73.2238 10.5618C73.0709 10.2406 72.9944 9.8773 72.9944 9.47197C72.9944 9.07429 73.0709 8.71484 73.2238 8.39364C73.3844 8.06478 73.6024 7.80858 73.8777 7.62504C74.1607 7.44149 74.4819 7.34972 74.8413 7.34972C75.2008 7.34972 75.5182 7.44149 75.7935 7.62504C76.0764 7.80858 76.2944 8.06478 76.4474 8.39364C76.608 8.71484 76.6883 9.07429 76.6883 9.47197C76.6883 9.8773 76.608 10.2406 76.4474 10.5618C76.2944 10.883 76.0764 11.1354 75.7935 11.3189Z" fill="#AAAAAA"/>
<path d="M31.0685 4.608C30.9767 4.50093 30.8505 4.44739 30.6899 4.44739C30.5293 4.44739 30.4031 4.50093 30.3114 4.608C30.2196 4.70742 30.1737 4.83743 30.1737 4.99803V9.40314C30.1737 9.80083 30.0781 10.1603 29.8869 10.4815C29.7034 10.795 29.4548 11.0398 29.1413 11.2157C28.8277 11.3916 28.4874 11.4795 28.1203 11.4795C27.7685 11.4795 27.4396 11.3916 27.1337 11.2157C26.8278 11.0398 26.5831 10.795 26.3995 10.4815C26.216 10.1603 26.1242 9.80083 26.1242 9.40314V4.99803C26.1242 4.84508 26.0669 4.71507 25.9521 4.608C25.8451 4.50093 25.7189 4.44739 25.5736 4.44739C25.4053 4.44739 25.2677 4.50093 25.1606 4.608C25.0535 4.70742 25 4.83743 25 4.99803V9.40314C25 10.0073 25.1338 10.5503 25.4015 11.0321C25.6692 11.5139 26.0401 11.8925 26.5143 12.1678C26.9884 12.4355 27.5238 12.5693 28.1203 12.5693C28.7092 12.5693 29.2369 12.4355 29.7034 12.1678C30.1775 11.8925 30.5485 11.5139 30.8161 11.0321C31.0838 10.5503 31.2176 10.0073 31.2176 9.40314V4.99803C31.2176 4.83743 31.1679 4.70742 31.0685 4.608Z" fill="#AAAAAA"/>
<path d="M32.537 11.2386C32.537 11.338 32.5714 11.4413 32.6402 11.5483C32.9232 11.9154 33.2673 12.1831 33.6726 12.3514C34.0856 12.5196 34.533 12.6037 35.0148 12.6037C35.3896 12.6037 35.7414 12.5349 36.0702 12.3972C36.4067 12.2519 36.6782 12.0493 36.8847 11.7892C37.0912 11.5216 37.1944 11.208 37.1944 10.8486C37.1944 10.4585 37.1027 10.145 36.9191 9.9079C36.7356 9.66317 36.51 9.47962 36.2423 9.35726C35.9746 9.23489 35.6381 9.12018 35.2328 9.01311C34.7663 8.89074 34.4183 8.76455 34.1889 8.63454C33.9671 8.50453 33.8524 8.30569 33.8447 8.03802C33.8447 7.75505 33.9441 7.55621 34.143 7.44149C34.3495 7.31913 34.598 7.25795 34.8886 7.25795C35.1716 7.25795 35.4278 7.30766 35.6572 7.40708C35.8943 7.5065 36.0932 7.64798 36.2538 7.83153C36.3379 7.9233 36.4488 7.96919 36.5864 7.96919C36.7012 7.96919 36.7968 7.93477 36.8732 7.86594C36.9956 7.75123 37.0568 7.63269 37.0568 7.51032C37.0568 7.39561 37.0109 7.28471 36.9191 7.17764C36.6897 6.89468 36.3914 6.68436 36.0243 6.5467C35.6649 6.40904 35.3016 6.34021 34.9345 6.34021C34.5521 6.34021 34.1965 6.41287 33.8677 6.55818C33.5465 6.70348 33.2864 6.90615 33.0876 7.16617C32.8964 7.4262 32.8008 7.72828 32.8008 8.07243C32.8008 8.46247 32.8964 8.77985 33.0876 9.02458C33.2864 9.26166 33.5273 9.4452 33.8103 9.57522C34.0933 9.69758 34.4489 9.81612 34.8772 9.93084C35.3131 10.0456 35.6419 10.1717 35.8637 10.3094C36.0932 10.4471 36.2079 10.6459 36.2079 10.9059C36.2079 11.1889 36.097 11.3954 35.8752 11.5254C35.6534 11.6478 35.3972 11.7128 35.1066 11.7204C34.7395 11.7204 34.4221 11.6554 34.1545 11.5254C33.8944 11.3954 33.6497 11.2004 33.4203 10.9403C33.3056 10.8256 33.1794 10.7683 33.0417 10.7683C32.9423 10.7683 32.8543 10.795 32.7779 10.8486C32.6173 10.9556 32.537 11.0856 32.537 11.2386Z" fill="#AAAAAA"/>
<path fill-rule="evenodd" clip-rule="evenodd" d="M43.7283 9.25401C43.7206 9.39167 43.6633 9.51021 43.5562 9.60963C43.4491 9.7014 43.3229 9.74729 43.1776 9.74729H39.1396C39.1931 10.3056 39.4035 10.753 39.7705 11.0895C40.1453 11.426 40.6003 11.5942 41.1357 11.5942C41.5028 11.5942 41.801 11.5407 42.0305 11.4336C42.2599 11.3266 42.4626 11.1889 42.6385 11.0206C42.7532 10.9518 42.8641 10.9174 42.9711 10.9174C43.1011 10.9174 43.2082 10.9633 43.2923 11.0551C43.3841 11.1468 43.43 11.2539 43.43 11.3763C43.43 11.5369 43.3535 11.6822 43.2006 11.8122C42.9788 12.034 42.6843 12.2213 42.3172 12.3743C41.9502 12.5273 41.5754 12.6037 41.193 12.6037C40.5736 12.6037 40.0267 12.4737 39.5526 12.2137C39.0861 11.9537 38.7228 11.5904 38.4628 11.1239C38.2104 10.6574 38.0842 10.1297 38.0842 9.5408C38.0842 8.89839 38.2142 8.33628 38.4742 7.85447C38.7419 7.36501 39.0899 6.99027 39.5182 6.73025C39.9541 6.47023 40.4206 6.34021 40.9177 6.34021C41.4072 6.34021 41.866 6.4664 42.2943 6.71878C42.7226 6.97115 43.0667 7.31913 43.3268 7.7627C43.5868 8.20627 43.7206 8.70337 43.7283 9.25401ZM40.9177 7.34972C40.4894 7.34972 40.1185 7.47208 39.805 7.71681C39.4914 7.95389 39.2849 8.32481 39.1855 8.82956H42.5696V8.73779C42.5314 8.33246 42.3478 7.99978 42.019 7.73975C41.6978 7.47973 41.3307 7.34972 40.9177 7.34972Z" fill="#AAAAAA"/>
<path d="M48.504 6.50082C48.3587 6.39375 48.1867 6.34021 47.9878 6.34021C47.5596 6.34786 47.1772 6.47023 46.8407 6.70731C46.5042 6.93674 46.2518 7.23883 46.0835 7.61357V7.02851C46.0835 6.87556 46.03 6.74555 45.9229 6.63848C45.8235 6.53141 45.6935 6.47787 45.5329 6.47787C45.3799 6.47787 45.2499 6.53141 45.1429 6.63848C45.0434 6.74555 44.9937 6.87556 44.9937 7.02851V11.9384C44.9937 12.099 45.0434 12.2328 45.1429 12.3399C45.2423 12.4393 45.3723 12.489 45.5329 12.489C45.6935 12.489 45.8235 12.4355 45.9229 12.3284C46.03 12.2213 46.0835 12.0913 46.0835 11.9384V9.17371C46.0835 8.82191 46.1524 8.50453 46.29 8.22156C46.4353 7.93095 46.6189 7.70534 46.8407 7.54474C47.0701 7.37649 47.3033 7.29236 47.5404 7.29236C47.6322 7.29236 47.7584 7.31913 47.919 7.37266C48.0567 7.41855 48.1599 7.44149 48.2287 7.44149C48.3664 7.44149 48.4811 7.39561 48.5729 7.30383C48.6723 7.20441 48.722 7.06293 48.722 6.87938C48.722 6.72643 48.6494 6.60024 48.504 6.50082Z" fill="#AAAAAA"/>
<path d="M54.176 5.51426V7.88889H56.998C57.1586 7.88889 57.2886 7.9386 57.388 8.03802C57.4951 8.13744 57.5486 8.26745 57.5486 8.42805C57.5486 8.56571 57.4951 8.68425 57.388 8.78367C57.2886 8.88309 57.1586 8.93281 56.998 8.93281H54.176V11.9384C54.176 12.0913 54.1186 12.2213 54.0039 12.3284C53.8968 12.4355 53.7668 12.489 53.6139 12.489C53.4533 12.489 53.3194 12.4355 53.2123 12.3284C53.1053 12.2213 53.0517 12.0913 53.0517 11.9384V5.0095C53.0517 4.85655 53.1053 4.72654 53.2123 4.61947C53.3194 4.5124 53.4494 4.45887 53.6024 4.45887H57.5142C57.6748 4.45887 57.8048 4.50858 57.9043 4.608C58.0113 4.70742 58.0649 4.83743 58.0649 4.99803C58.0649 5.13569 58.0113 5.25806 57.9043 5.36512C57.7972 5.46455 57.6672 5.51426 57.5142 5.51426H54.176Z" fill="#AAAAAA"/>
<path fill-rule="evenodd" clip-rule="evenodd" d="M64.3261 9.60963C64.4332 9.51021 64.4906 9.39167 64.4982 9.25401C64.4906 8.70337 64.3567 8.20627 64.0967 7.7627C63.8367 7.31913 63.4925 6.97115 63.0642 6.71878C62.636 6.4664 62.1771 6.34021 61.6877 6.34021C61.1905 6.34021 60.724 6.47023 60.2881 6.73025C59.8598 6.99027 59.5119 7.36501 59.2442 7.85447C58.9842 8.33628 58.8542 8.89839 58.8542 9.5408C58.8542 10.1297 58.9803 10.6574 59.2327 11.1239C59.4927 11.5904 59.856 11.9537 60.3225 12.2137C60.7967 12.4737 61.3435 12.6037 61.963 12.6037C62.3454 12.6037 62.7201 12.5273 63.0872 12.3743C63.4543 12.2213 63.7487 12.034 63.9705 11.8122C64.1235 11.6822 64.1999 11.5369 64.1999 11.3763C64.1999 11.2539 64.1541 11.1468 64.0623 11.0551C63.9782 10.9633 63.8711 10.9174 63.7411 10.9174C63.634 10.9174 63.5231 10.9518 63.4084 11.0206C63.2325 11.1889 63.0298 11.3266 62.8004 11.4336C62.571 11.5407 62.2727 11.5942 61.9056 11.5942C61.3703 11.5942 60.9152 11.426 60.5405 11.0895C60.1734 10.753 59.9631 10.3056 59.9095 9.74729H63.9476C64.0929 9.74729 64.2191 9.7014 64.3261 9.60963ZM60.5749 7.71681C60.8885 7.47208 61.2594 7.34972 61.6877 7.34972C62.1006 7.34972 62.4677 7.47973 62.7889 7.73975C63.1178 7.99978 63.3013 8.33246 63.3396 8.73779V8.82956H59.9554C60.0549 8.32481 60.2613 7.95389 60.5749 7.71681Z" fill="#AAAAAA"/>
<path fill-rule="evenodd" clip-rule="evenodd" d="M71.0406 9.25401C71.033 9.39167 70.9756 9.51021 70.8686 9.60963C70.7615 9.7014 70.6353 9.74729 70.49 9.74729H66.452C66.5055 10.3056 66.7158 10.753 67.0829 11.0895C67.4576 11.426 67.9127 11.5942 68.448 11.5942C68.8151 11.5942 69.1134 11.5407 69.3428 11.4336C69.5723 11.3266 69.7749 11.1889 69.9508 11.0206C70.0655 10.9518 70.1764 10.9174 70.2835 10.9174C70.4135 10.9174 70.5206 10.9633 70.6047 11.0551C70.6965 11.1468 70.7424 11.2539 70.7424 11.3763C70.7424 11.5369 70.6659 11.6822 70.5129 11.8122C70.2911 12.034 69.9967 12.2213 69.6296 12.3743C69.2625 12.5273 68.8878 12.6037 68.5054 12.6037C67.8859 12.6037 67.3391 12.4737 66.8649 12.2137C66.3984 11.9537 66.0352 11.5904 65.7751 11.1239C65.5228 10.6574 65.3966 10.1297 65.3966 9.5408C65.3966 8.89839 65.5266 8.33628 65.7866 7.85447C66.0543 7.36501 66.4023 6.99027 66.8305 6.73025C67.2665 6.47023 67.733 6.34021 68.2301 6.34021C68.7195 6.34021 69.1784 6.4664 69.6067 6.71878C70.0349 6.97115 70.3791 7.31913 70.6391 7.7627C70.8991 8.20627 71.033 8.70337 71.0406 9.25401ZM68.2301 7.34972C67.8018 7.34972 67.4309 7.47208 67.1173 7.71681C66.8038 7.95389 66.5973 8.32481 66.4979 8.82956H69.882V8.73779C69.8438 8.33246 69.6602 7.99978 69.3314 7.73975C69.0101 7.47973 68.6431 7.34972 68.2301 7.34972Z" fill="#AAAAAA"/>
<path fill-rule="evenodd" clip-rule="evenodd" d="M82.3697 6.34021C82.8897 6.34021 83.3601 6.47405 83.7807 6.74172C84.2013 7.00939 84.5302 7.38031 84.7673 7.85447C85.012 8.32863 85.1343 8.86398 85.1343 9.4605C85.1343 10.057 85.012 10.5962 84.7673 11.078C84.5302 11.5598 84.2013 11.9346 83.7807 12.2022C83.3601 12.4699 82.8974 12.6037 82.3926 12.6037C81.9949 12.6037 81.624 12.5158 81.2799 12.3399C80.9357 12.164 80.6566 11.946 80.4424 11.686V12.0187C80.4424 12.1716 80.3889 12.3016 80.2818 12.4087C80.1824 12.5158 80.0524 12.5693 79.8918 12.5693C79.7388 12.5693 79.6088 12.5196 79.5018 12.4202C79.4023 12.3131 79.3526 12.1793 79.3526 12.0187V4.55064C79.3526 4.39004 79.4023 4.26002 79.5018 4.1606C79.6012 4.05353 79.7312 4 79.8918 4C80.0524 4 80.1824 4.05353 80.2818 4.1606C80.3889 4.26767 80.4424 4.39768 80.4424 4.55064V7.34972C80.626 7.0744 80.8937 6.83732 81.2455 6.63848C81.5973 6.43964 81.972 6.34021 82.3697 6.34021ZM82.2435 11.5942C82.5953 11.5942 82.9127 11.5025 83.1956 11.3189C83.4786 11.1277 83.6966 10.8715 83.8495 10.5503C84.0101 10.2215 84.0904 9.85818 84.0904 9.4605C84.0904 9.06282 84.0101 8.70337 83.8495 8.38217C83.6966 8.06096 83.4786 7.80858 83.1956 7.62504C82.9127 7.44149 82.5953 7.34972 82.2435 7.34972C81.884 7.34972 81.5628 7.44149 81.2799 7.62504C80.9969 7.80858 80.7751 8.06096 80.6145 8.38217C80.4616 8.69572 80.3851 9.05517 80.3851 9.4605C80.3851 9.86583 80.4616 10.2291 80.6145 10.5503C80.7751 10.8715 80.9969 11.1277 81.2799 11.3189C81.5628 11.5025 81.884 11.5942 82.2435 11.5942Z" fill="#AAAAAA"/>
<path fill-rule="evenodd" clip-rule="evenodd" d="M91.6647 6.55818C91.5652 6.45111 91.4352 6.39757 91.2746 6.39757C91.114 6.39757 90.984 6.45111 90.8846 6.55818C90.7852 6.66524 90.7355 6.79908 90.7355 6.95968V7.235C90.529 6.97498 90.2498 6.76084 89.898 6.59259C89.5539 6.42434 89.1791 6.34021 88.7738 6.34021C88.2691 6.34021 87.8064 6.47405 87.3857 6.74172C86.9651 7.00939 86.6324 7.38413 86.3877 7.86594C86.1506 8.3401 86.0321 8.87545 86.0321 9.47197C86.0321 10.0685 86.1506 10.6077 86.3877 11.0895C86.6324 11.5636 86.9651 11.9346 87.3857 12.2022C87.814 12.4699 88.2882 12.6037 88.8082 12.6037C89.2059 12.6037 89.5768 12.512 89.921 12.3284C90.2651 12.1372 90.5366 11.9078 90.7355 11.6401V11.9384C90.7355 12.099 90.7852 12.2328 90.8846 12.3399C90.984 12.4393 91.114 12.489 91.2746 12.489C91.4352 12.489 91.5652 12.4355 91.6647 12.3284C91.7717 12.2213 91.8253 12.0913 91.8253 11.9384V6.95968C91.8253 6.79143 91.7717 6.6576 91.6647 6.55818ZM89.8866 11.3189C89.6112 11.5025 89.2939 11.5942 88.9344 11.5942C88.575 11.5942 88.2538 11.5025 87.9708 11.3189C87.6955 11.1354 87.4775 10.883 87.3169 10.5618C87.164 10.2406 87.0875 9.8773 87.0875 9.47197C87.0875 9.06664 87.164 8.70337 87.3169 8.38217C87.4775 8.06096 87.6955 7.80858 87.9708 7.62504C88.2538 7.44149 88.575 7.34972 88.9344 7.34972C89.2939 7.34972 89.6112 7.44532 89.8866 7.63651C90.1695 7.82006 90.3875 8.07243 90.5404 8.39364C90.701 8.71484 90.7813 9.07429 90.7813 9.47197C90.7813 9.8773 90.701 10.2406 90.5404 10.5618C90.3875 10.883 90.1695 11.1354 89.8866 11.3189Z" fill="#AAAAAA"/>
<path d="M96.0613 6.34021C96.6654 6.34021 97.1664 6.43581 97.564 6.62701C97.9694 6.8182 98.172 7.06293 98.172 7.36119C98.172 7.4912 98.13 7.60974 98.0459 7.71681C97.9617 7.81623 97.8547 7.86594 97.7246 7.86594C97.6252 7.86594 97.5449 7.85065 97.4837 7.82006C97.4302 7.78946 97.3537 7.73975 97.2543 7.67092C97.2084 7.62504 97.1358 7.5715 97.0363 7.51032C96.9446 7.46444 96.8146 7.4262 96.6463 7.39561C96.4781 7.36501 96.3251 7.34972 96.1874 7.34972C95.7898 7.34972 95.438 7.44149 95.1321 7.62504C94.8261 7.80858 94.5891 8.06478 94.4208 8.39364C94.2526 8.71484 94.1684 9.07429 94.1684 9.47197C94.1684 9.8773 94.2487 10.2406 94.4093 10.5618C94.5776 10.883 94.8109 11.1354 95.1091 11.3189C95.4074 11.5025 95.7477 11.5942 96.1301 11.5942C96.5278 11.5942 96.849 11.533 97.0937 11.4107C97.1472 11.3801 97.2199 11.3304 97.3117 11.2615C97.3881 11.2004 97.4531 11.1545 97.5067 11.1239C97.5679 11.0933 97.6405 11.078 97.7246 11.078C97.8776 11.078 97.9961 11.1277 98.0803 11.2271C98.172 11.3189 98.2179 11.4413 98.2179 11.5942C98.2179 11.7548 98.1147 11.9154 97.9082 12.076C97.7094 12.229 97.4379 12.3552 97.0937 12.4546C96.7572 12.554 96.3939 12.6037 96.0039 12.6037C95.4227 12.6037 94.9103 12.4699 94.4667 12.2022C94.0231 11.9269 93.679 11.5522 93.4342 11.078C93.1972 10.5962 93.0786 10.0609 93.0786 9.47197C93.0786 8.88309 93.2048 8.35158 93.4572 7.87741C93.7096 7.39561 94.0614 7.02086 94.5126 6.75319C94.9638 6.47787 95.48 6.34021 96.0613 6.34021Z" fill="#AAAAAA"/>
<path d="M104.42 11.9384C104.42 11.7931 104.363 11.6592 104.248 11.5369L102.046 9.15077L104.03 7.38413C104.176 7.26177 104.248 7.12411 104.248 6.97115C104.248 6.84879 104.195 6.73407 104.088 6.62701C103.981 6.51229 103.862 6.45493 103.732 6.45493C103.594 6.45493 103.461 6.51229 103.331 6.62701L100.52 9.20812V4.55064C100.52 4.39768 100.466 4.26767 100.359 4.1606C100.26 4.05353 100.134 4 99.9808 4C99.8202 4 99.6864 4.05353 99.5793 4.1606C99.4799 4.26767 99.4302 4.39768 99.4302 4.55064V11.9384C99.4302 12.0913 99.4799 12.2213 99.5793 12.3284C99.6864 12.4355 99.8202 12.489 99.9808 12.489C100.134 12.489 100.26 12.4355 100.359 12.3284C100.466 12.2213 100.52 12.0913 100.52 11.9384V10.5159L101.208 9.89642L103.468 12.294C103.568 12.4164 103.701 12.4775 103.87 12.4775C104 12.4775 104.122 12.4278 104.237 12.3284C104.359 12.2213 104.42 12.0913 104.42 11.9384Z" fill="#AAAAAA"/>
</svg>
