<svg width="35" height="35" viewBox="0 0 35 35" fill="none" xmlns="http://www.w3.org/2000/svg">
<path fill-rule="evenodd" clip-rule="evenodd" d="M3.87517 0H31.1248C33.265 0 35 1.73497 35 3.87517V24.6953C35 26.8355 33.265 28.5705 31.1248 28.5705H19.7217C18.7336 28.5705 17.7829 28.9479 17.0638 29.6256L12.2953 34.12C10.2461 36.0514 6.88018 34.5986 6.88018 31.7825C6.88018 30.0085 5.44209 28.5705 3.66812 28.5705H3.44009C1.54018 28.5705 0 27.0303 0 25.1304V3.87517C0 1.73497 1.73497 0 3.87517 0ZM16.521 4.84225C15.4509 4.84225 14.5834 5.70974 14.5834 6.77984V20.3375C14.5834 21.4076 15.4509 22.2751 16.521 22.2751H18.4792C19.5493 22.2751 20.4168 21.4076 20.4168 20.3375V6.77984C20.4168 5.70974 19.5493 4.84225 18.4792 4.84225H16.521ZM8.74325 10.6529C7.67315 10.6529 6.80566 11.5204 6.80566 12.5905V20.3372C6.80566 21.4073 7.67315 22.2748 8.74325 22.2748H10.7014C11.7715 22.2748 12.639 21.4073 12.639 20.3372V12.5905C12.639 11.5204 11.7715 10.6529 10.7014 10.6529H8.74325ZM22.3613 16.4648C22.3613 15.3947 23.2288 14.5272 24.2989 14.5272H26.2571C27.3272 14.5272 28.1947 15.3947 28.1947 16.4648V20.3375C28.1947 21.4076 27.3272 22.2751 26.2571 22.2751H24.2989C23.2288 22.2751 22.3613 21.4076 22.3613 20.3375V16.4648Z" fill="#2D87F1"/>
</svg>
