<svg width="194" height="33" viewBox="0 0 194 33" fill="none" xmlns="http://www.w3.org/2000/svg">
<path fill-rule="evenodd" clip-rule="evenodd" d="M3.555 0H28.5531C30.5165 0 32.1081 1.61445 32.1081 3.60597L32.1081 23.2397C32.1081 25.2313 30.5165 27 28.5531 27H18.0863C17.1834 27 16.3143 26.9369 15.6555 27.5631L11.3716 31.725C9.49516 33.5087 6.02027 32.3086 6.02027 29.7C6.02027 28.0542 4.99637 27 3.37383 27H3.15585C1.41292 27 0 25.5668 0 23.7989L1.92476e-05 3.60597C1.92476e-05 1.61445 1.59164 0 3.555 0ZM15.1087 4.5075C14.127 4.5075 13.3312 5.31473 13.3312 6.31049V18.9314C13.3312 19.9272 14.127 20.7344 15.1087 20.7344H16.8862C17.8679 20.7344 18.6637 19.9272 18.6637 18.9314V6.31049C18.6637 5.31472 17.8679 4.5075 16.8862 4.5075H15.1087ZM7.99873 9.91638C7.01705 9.91638 6.22124 10.7236 6.22124 11.7194V18.9313C6.22124 19.9271 7.01705 20.7343 7.99873 20.7343H9.77622C10.7579 20.7343 11.5537 19.9271 11.5537 18.9313V11.7194C11.5537 10.7236 10.7579 9.91638 9.77622 9.91638H7.99873ZM20.4412 15.3253C20.4412 14.3296 21.237 13.5223 22.2187 13.5223H23.9961C24.9778 13.5223 25.7736 14.3296 25.7736 15.3253V18.9313C25.7736 19.9271 24.9778 20.7343 23.9961 20.7343H22.2187C21.237 20.7343 20.4412 19.9271 20.4412 18.9313V15.3253Z" fill="#2D87F1"/>
<path d="M43.1049 6.31797V15.6492C43.1049 16.6716 43.3689 17.4564 43.8969 18.0036C44.4249 18.5364 45.1669 18.8028 46.123 18.8028C47.0934 18.8028 47.8426 18.5364 48.3706 18.0036C48.8986 17.4564 49.1626 16.6716 49.1626 15.6492V6.31797H52.1807V15.6276C52.1807 16.9092 51.9025 17.9964 51.3459 18.8892C50.8037 19.7676 50.0687 20.43 49.1412 20.8764C48.2279 21.3228 47.2076 21.546 46.0802 21.546C44.9671 21.546 43.9539 21.3228 43.0406 20.8764C42.1416 20.43 41.4281 19.7676 40.9001 18.8892C40.3721 17.9964 40.1081 16.9092 40.1081 15.6276V6.31797H43.1049Z" fill="#243242"/>
<path d="M59.6141 21.5892C58.6437 21.5892 57.7732 21.4164 57.0026 21.0708C56.232 20.7108 55.6184 20.2284 55.1618 19.6236C54.7194 19.0188 54.4768 18.3492 54.434 17.6148H57.4522C57.5092 18.0756 57.7304 18.4572 58.1157 18.7596C58.5153 19.062 59.0076 19.2132 59.5927 19.2132C60.1635 19.2132 60.6059 19.098 60.9198 18.8676C61.2481 18.6372 61.4122 18.342 61.4122 17.982C61.4122 17.5932 61.2124 17.3052 60.8128 17.118C60.4275 16.9164 59.8068 16.7004 58.9505 16.47C58.0658 16.254 57.338 16.0308 56.7672 15.8004C56.2106 15.57 55.7255 15.2172 55.3116 14.742C54.9121 14.2668 54.7123 13.626 54.7123 12.8196C54.7123 12.1572 54.8978 11.5524 55.2688 11.0052C55.6541 10.458 56.1964 10.026 56.8956 9.70917C57.6091 9.39237 58.4439 9.23397 59.4001 9.23397C60.8128 9.23397 61.9402 9.59397 62.7821 10.314C63.6241 11.0196 64.0878 11.9772 64.1735 13.1868H61.3051C61.2623 12.7116 61.0625 12.3372 60.7058 12.0636C60.3633 11.7756 59.8995 11.6316 59.3144 11.6316C58.7722 11.6316 58.3512 11.7324 58.0515 11.934C57.7661 12.1356 57.6234 12.4164 57.6234 12.7764C57.6234 13.1796 57.8232 13.4892 58.2228 13.7052C58.6223 13.9068 59.2431 14.1156 60.085 14.3316C60.9412 14.5476 61.6476 14.7708 62.2042 15.0012C62.7607 15.2316 63.2388 15.5916 63.6383 16.0812C64.0522 16.5564 64.2662 17.19 64.2805 17.982C64.2805 18.6732 64.0878 19.2924 63.7025 19.8396C63.3315 20.3868 62.7892 20.8188 62.0757 21.1356C61.3765 21.438 60.5559 21.5892 59.6141 21.5892Z" fill="#243242"/>
<path d="M77.7642 15.1524C77.7642 15.5844 77.7357 15.9732 77.6786 16.3188H69.0094C69.0808 17.1828 69.3804 17.8596 69.9084 18.3492C70.4364 18.8388 71.0857 19.0836 71.8563 19.0836C72.9694 19.0836 73.7614 18.6012 74.2323 17.6364H77.4645C77.1221 18.7884 76.4656 19.7388 75.4952 20.4876C74.5249 21.222 73.3333 21.5892 71.9205 21.5892C70.7789 21.5892 69.7515 21.3372 68.8382 20.8332C67.9391 20.3148 67.2328 19.5876 66.719 18.6516C66.2196 17.7156 65.9698 16.6356 65.9698 15.4116C65.9698 14.1732 66.2196 13.086 66.719 12.15C67.2185 11.214 67.9177 10.494 68.8168 9.98997C69.7158 9.48597 70.7504 9.23397 71.9205 9.23397C73.0479 9.23397 74.0539 9.47877 74.9387 9.96837C75.8377 10.458 76.5298 11.1564 77.015 12.0636C77.5145 12.9564 77.7642 13.986 77.7642 15.1524ZM74.6604 14.2884C74.6462 13.5108 74.3679 12.8916 73.8256 12.4308C73.2834 11.9556 72.6198 11.718 71.8349 11.718C71.0929 11.718 70.465 11.9484 69.9512 12.4092C69.4518 12.8556 69.145 13.482 69.0308 14.2884H74.6604Z" fill="#243242"/>
<path d="M82.9483 11.286C83.3336 10.6524 83.8331 10.1556 84.4467 9.79557C85.0746 9.43557 85.7881 9.25557 86.5873 9.25557V12.4308H85.7953C84.8534 12.4308 84.1399 12.654 83.6547 13.1004C83.1838 13.5468 82.9483 14.3244 82.9483 15.4332V21.3948H79.9516V9.42837H82.9483V11.286Z" fill="#243242"/>
<path d="M97.8315 6.31797V8.75877H91.6025V12.6252H96.3759V15.0228H91.6025V21.3948H88.6057V6.31797H97.8315Z" fill="#243242"/>
<path d="M110.98 15.1524C110.98 15.5844 110.952 15.9732 110.895 16.3188H102.225C102.297 17.1828 102.596 17.8596 103.124 18.3492C103.652 18.8388 104.302 19.0836 105.072 19.0836C106.185 19.0836 106.977 18.6012 107.448 17.6364H110.681C110.338 18.7884 109.682 19.7388 108.711 20.4876C107.741 21.222 106.549 21.5892 105.137 21.5892C103.995 21.5892 102.967 21.3372 102.054 20.8332C101.155 20.3148 100.449 19.5876 99.935 18.6516C99.4356 17.7156 99.1858 16.6356 99.1858 15.4116C99.1858 14.1732 99.4356 13.086 99.935 12.15C100.434 11.214 101.134 10.494 102.033 9.98997C102.932 9.48597 103.966 9.23397 105.137 9.23397C106.264 9.23397 107.27 9.47877 108.155 9.96837C109.054 10.458 109.746 11.1564 110.231 12.0636C110.73 12.9564 110.98 13.986 110.98 15.1524ZM107.876 14.2884C107.862 13.5108 107.584 12.8916 107.042 12.4308C106.499 11.9556 105.836 11.718 105.051 11.718C104.309 11.718 103.681 11.9484 103.167 12.4092C102.668 12.8556 102.361 13.482 102.247 14.2884H107.876Z" fill="#243242"/>
<path d="M124.191 15.1524C124.191 15.5844 124.163 15.9732 124.106 16.3188H115.437C115.508 17.1828 115.808 17.8596 116.336 18.3492C116.864 18.8388 117.513 19.0836 118.283 19.0836C119.397 19.0836 120.189 18.6012 120.659 17.6364H123.892C123.549 18.7884 122.893 19.7388 121.922 20.4876C120.952 21.222 119.76 21.5892 118.348 21.5892C117.206 21.5892 116.179 21.3372 115.265 20.8332C114.366 20.3148 113.66 19.5876 113.146 18.6516C112.647 17.7156 112.397 16.6356 112.397 15.4116C112.397 14.1732 112.647 13.086 113.146 12.15C113.646 11.214 114.345 10.494 115.244 9.98997C116.143 9.48597 117.178 9.23397 118.348 9.23397C119.475 9.23397 120.481 9.47877 121.366 9.96837C122.265 10.458 122.957 11.1564 123.442 12.0636C123.942 12.9564 124.191 13.986 124.191 15.1524ZM121.088 14.2884C121.073 13.5108 120.795 12.8916 120.253 12.4308C119.711 11.9556 119.047 11.718 118.262 11.718C117.52 11.718 116.892 11.9484 116.378 12.4092C115.879 12.8556 115.572 13.482 115.458 14.2884H121.088Z" fill="#243242"/>
<path d="M125.608 15.3684C125.608 14.1588 125.844 13.086 126.315 12.15C126.8 11.214 127.456 10.494 128.284 9.98997C129.111 9.48597 130.032 9.23397 131.045 9.23397C131.816 9.23397 132.551 9.40677 133.25 9.75237C133.949 10.0836 134.506 10.53 134.919 11.0916V5.41077H137.959V21.3948H134.919V19.6236C134.548 20.214 134.028 20.6892 133.357 21.0492C132.686 21.4092 131.908 21.5892 131.024 21.5892C130.025 21.5892 129.111 21.33 128.284 20.8116C127.456 20.2932 126.8 19.566 126.315 18.63C125.844 17.6796 125.608 16.5924 125.608 15.3684ZM134.941 15.4116C134.941 14.6772 134.798 14.0508 134.513 13.5324C134.227 12.9996 133.842 12.5964 133.357 12.3228C132.872 12.0348 132.351 11.8908 131.794 11.8908C131.238 11.8908 130.724 12.0276 130.253 12.3012C129.782 12.5748 129.397 12.978 129.097 13.5108C128.812 14.0292 128.669 14.6484 128.669 15.3684C128.669 16.0884 128.812 16.722 129.097 17.2692C129.397 17.802 129.782 18.2124 130.253 18.5004C130.738 18.7884 131.252 18.9324 131.794 18.9324C132.351 18.9324 132.872 18.7956 133.357 18.522C133.842 18.234 134.227 17.8308 134.513 17.3124C134.798 16.7796 134.941 16.146 134.941 15.4116Z" fill="#243242"/>
<path d="M143.883 11.178C144.268 10.602 144.796 10.134 145.467 9.77397C146.152 9.41397 146.929 9.23397 147.8 9.23397C148.813 9.23397 149.726 9.48597 150.54 9.98997C151.367 10.494 152.017 11.214 152.488 12.15C152.973 13.0716 153.215 14.1444 153.215 15.3684C153.215 16.5924 152.973 17.6796 152.488 18.63C152.017 19.566 151.367 20.2932 150.54 20.8116C149.726 21.33 148.813 21.5892 147.8 21.5892C146.915 21.5892 146.137 21.4164 145.467 21.0708C144.81 20.7108 144.282 20.25 143.883 19.6884V21.3948H140.886V5.41077H143.883V11.178ZM150.154 15.3684C150.154 14.6484 150.005 14.0292 149.705 13.5108C149.42 12.978 149.034 12.5748 148.549 12.3012C148.078 12.0276 147.564 11.8908 147.008 11.8908C146.466 11.8908 145.952 12.0348 145.467 12.3228C144.996 12.5964 144.61 12.9996 144.311 13.5324C144.025 14.0652 143.883 14.6916 143.883 15.4116C143.883 16.1316 144.025 16.758 144.311 17.2908C144.61 17.8236 144.996 18.234 145.467 18.522C145.952 18.7956 146.466 18.9324 147.008 18.9324C147.564 18.9324 148.078 18.7884 148.549 18.5004C149.034 18.2124 149.42 17.802 149.705 17.2692C150.005 16.7364 150.154 16.1028 150.154 15.3684Z" fill="#243242"/>
<path d="M154.623 15.3684C154.623 14.1588 154.858 13.086 155.329 12.15C155.814 11.214 156.463 10.494 157.277 9.98997C158.104 9.48597 159.025 9.23397 160.038 9.23397C160.923 9.23397 161.693 9.41397 162.35 9.77397C163.021 10.134 163.556 10.5876 163.955 11.1348V9.42837H166.973V21.3948H163.955V19.6452C163.57 20.2068 163.035 20.6748 162.35 21.0492C161.679 21.4092 160.901 21.5892 160.017 21.5892C159.018 21.5892 158.104 21.33 157.277 20.8116C156.463 20.2932 155.814 19.566 155.329 18.63C154.858 17.6796 154.623 16.5924 154.623 15.3684ZM163.955 15.4116C163.955 14.6772 163.813 14.0508 163.527 13.5324C163.242 12.9996 162.856 12.5964 162.371 12.3228C161.886 12.0348 161.365 11.8908 160.809 11.8908C160.252 11.8908 159.738 12.0276 159.267 12.3012C158.797 12.5748 158.411 12.978 158.112 13.5108C157.826 14.0292 157.683 14.6484 157.683 15.3684C157.683 16.0884 157.826 16.722 158.112 17.2692C158.411 17.802 158.797 18.2124 159.267 18.5004C159.753 18.7884 160.266 18.9324 160.809 18.9324C161.365 18.9324 161.886 18.7956 162.371 18.522C162.856 18.234 163.242 17.8308 163.527 17.3124C163.813 16.7796 163.955 16.146 163.955 15.4116Z" fill="#243242"/>
<path d="M169.13 15.4116C169.13 14.1732 169.379 13.0932 169.879 12.1716C170.378 11.2356 171.07 10.5156 171.955 10.0116C172.84 9.49317 173.853 9.23397 174.995 9.23397C176.465 9.23397 177.678 9.60837 178.634 10.3572C179.604 11.0916 180.253 12.1284 180.582 13.4676H177.349C177.178 12.9492 176.886 12.546 176.472 12.258C176.072 11.9556 175.573 11.8044 174.973 11.8044C174.117 11.8044 173.439 12.1212 172.94 12.7548C172.44 13.374 172.191 14.2596 172.191 15.4116C172.191 16.5492 172.44 17.4348 172.94 18.0684C173.439 18.6876 174.117 18.9972 174.973 18.9972C176.186 18.9972 176.978 18.45 177.349 17.3556H180.582C180.253 18.6516 179.604 19.6812 178.634 20.4444C177.663 21.2076 176.45 21.5892 174.995 21.5892C173.853 21.5892 172.84 21.3372 171.955 20.8332C171.07 20.3148 170.378 19.5948 169.879 18.6732C169.379 17.7372 169.13 16.65 169.13 15.4116Z" fill="#243242"/>
<path d="M189.798 21.3948L185.774 16.2972V21.3948H182.777V5.41077H185.774V14.5044L189.755 9.42837H193.651L188.428 15.4332L193.694 21.3948H189.798Z" fill="#243242"/>
</svg>
