<?xml version="1.0" encoding="utf-8"?>
<!-- Generator: Adobe Illustrator 27.5.0, SVG Export Plug-In . SVG Version: 6.00 Build 0)  -->
<svg version="1.1" id="Layer_1" xmlns="http://www.w3.org/2000/svg" xmlns:xlink="http://www.w3.org/1999/xlink" x="0px" y="0px"
	 viewBox="0 0 150 150" style="enable-background:new 0 0 150 150;" xml:space="preserve">
<style type="text/css">
	.st0{fill-rule:evenodd;clip-rule:evenodd;fill:#006CBF;}
	.st1{fill-rule:evenodd;clip-rule:evenodd;fill:#54A0DE;}
	.st2{fill-rule:evenodd;clip-rule:evenodd;fill:#ACBDC9;}
	.st3{fill-rule:evenodd;clip-rule:evenodd;fill:#FFFFFF;stroke:#54A0DE;stroke-width:4;stroke-miterlimit:10;}
	.st4{fill-rule:evenodd;clip-rule:evenodd;fill:#FFFFFF;}
	.st5{fill-rule:evenodd;clip-rule:evenodd;fill:#BDD6DE;}
	.st6{fill-rule:evenodd;clip-rule:evenodd;fill:#54A0DE;stroke:#54A0DE;stroke-width:2;stroke-miterlimit:10;}
	.st7{fill-rule:evenodd;clip-rule:evenodd;fill:#D5E2E9;stroke:#54A0DE;stroke-width:4;stroke-miterlimit:10;}
	.st8{fill-rule:evenodd;clip-rule:evenodd;fill:#FFFFFF;stroke:#54A0DE;stroke-width:4;stroke-linecap:round;stroke-miterlimit:10;}
</style>
<g>
	<g>
		<path class="st0" d="M64.2,45.1c2.1-0.3,4.1-0.6,6.2-0.6c-1.5,0.6-3.2,0.8-4.8,0.7C65.1,45.1,64.6,45.1,64.2,45.1z"/>
		<path class="st1" d="M5.8,80.8l15.6-4.1l0.8,41.7l-16.1-5c-1.7-0.4-3.2-1.7-3.8-3.4c-2.8-8.5-2.9-17.6-0.3-26.2
			C2.6,82.4,3.3,81.4,5.8,80.8L5.8,80.8z"/>
		<path class="st2" d="M18.8,113.8l-0.7-32.6c-1.4,0.4-12.2,3.1-12.7,3.5c-0.1,0.1-0.1,0.3-0.2,0.4c-2.4,7.8-2.3,16.1,0.2,23.8
			c0.3,0.6,0.8,1.1,1.5,1.2L18.8,113.8L18.8,113.8z"/>
		<path class="st2" d="M18.8,113.8l-0.1-2.3l-12.1-2.9c-0.9-0.2-2-3.2-2.9-6.6c0.3,2.4,0.8,4.7,1.6,6.9c0.3,0.6,0.8,1.1,1.5,1.2
			L18.8,113.8z M18.6,100l-0.3-18.9C16.9,81.5,6,84.2,5.5,84.6c-0.1,0.1-0.1,0.3-0.2,0.4c-1.1,3.8-1.8,7.7-1.8,11.6L18.6,100
			L18.6,100z"/>
		<path class="st2" d="M8.2,96.3c0-0.2-0.1-0.3-0.2-0.4l-3.4-2.3l-0.6-1.5c0-0.3,0-0.6,0-0.9l0,0l5,3.1c0.7,0.4,1.1,1.2,1.2,2
			c0.2,4.6,0.3,9,1.1,15"/>
		<path class="st1" d="M67.3,17.9C79.5,26,82.2,38.4,79.2,52.1l-4-1c2.6-12,0.7-22.7-10.2-29.8C65.1,21.3,67.3,17.9,67.3,17.9z"/>
		<path class="st3" d="M75.8,60.1C72.3,60,60.5,59.3,59.4,55c-1.1-5.4-0.9-11,0.5-16.4c1.3-4.1,13.1-4,16.6-3.9s15.3,0.7,16.3,4.8
			c1.2,5.4,1.1,11-0.2,16.4C91.3,60.1,79.4,60.2,75.8,60.1z"/>
		<path class="st1" d="M144.8,84.2l-15.4-4.8l-2.8,41.5l16.4-4.2c1.8-0.3,3.3-1.5,4-3.1c3.3-8.3,3.8-17.5,1.5-26.1
			C148,85.9,147.3,85,144.8,84.2L144.8,84.2z"/>
		<path class="st2" d="M130.2,116.5l2.2-32.6c1.3,0.4,12.1,3.7,12.5,4.1l0.1,0.4c2,7.9,1.5,16.2-1.5,23.8c-0.3,0.6-0.9,1.1-1.6,1.1
			L130.2,116.5L130.2,116.5z"/>
		<path class="st2" d="M130.2,116.5l0.2-2.3l12.2-2.3c0.9-0.1,2.1-3.1,3.2-6.4c-0.4,2.3-1.1,4.6-2,6.8c-0.3,0.6-0.9,1.1-1.6,1.1
			L130.2,116.5L130.2,116.5z M131.2,102.8l1.3-18.9c1.3,0.4,12.1,3.7,12.5,4.1l0.1,0.4c1,3.8,1.4,7.7,1.2,11.7L131.2,102.8
			L131.2,102.8z"/>
		<path class="st2" d="M146.2,94.7l-5.1,2.9c-0.7,0.4-1.2,1.1-1.2,1.9c-0.5,4.6-0.8,9-1.9,15c1.6-4.9,2.9-9.8,3.8-14.9
			c0-0.2,0-0.3,0.2-0.4l3.5-2.1l0.7-1.5C146.2,95.3,146.2,94.9,146.2,94.7L146.2,94.7z"/>
		<path class="st2" d="M146.2,95.6l-4.4,2.5c-0.7,0.4-1.2,1.1-1.2,2c-0.4,4.2-1.1,8.4-2.1,12.6l-0.5,1.8l2.1-0.6
			c0.1-0.3,0.2-0.6,0.3-1c1-4.3,1.7-8.6,2.1-13c0-0.2,0-0.3,0.2-0.4l3.6-2.1C146.3,97,146.3,96.3,146.2,95.6z"/>
		<path class="st1" d="M74,138.5c-8.7-0.2-17.3-0.9-25.9-2.2c-7.2-1-14.3-2.9-21.1-5.6c-4.9-2.1-10.7-5.6-12-11.4
			c-3.9-16.9-3.2-44.8,2-61.4c1.9-6.3,9.9-9.3,15.5-10.8c6.6-1.7,13.3-2.9,20.1-3.3c7.9-0.7,15.8-0.9,23.7-0.6
			c7.9,0.1,15.8,0.7,23.7,1.8c6.8,0.8,13.4,2.3,19.9,4.3c5.5,1.7,13.3,5.2,15,11.6c4.4,16.8,3.7,44.6-1,61.4
			c-1.7,5.7-7.6,8.9-12.6,10.8c-6.9,2.4-14,4-21.3,4.6C91.3,138.5,82.6,138.8,74,138.5L74,138.5z"/>
		<path class="st4" d="M74,134.4c-17.6-0.4-35.1-3-45.6-7.6c-5.4-2.4-9-5.3-9.7-8.7c-3.6-15.7-3.1-42.8,2-59.1
			c1.1-3.5,5.9-6.2,12.8-8.2c10.7-3,26.8-4.3,42.7-3.9s31.7,2.5,42.3,6c6.9,2.3,11.5,5.2,12.4,8.8c4.3,16.5,3.4,43.7-1,59.2
			c-0.8,3.3-4.5,6.2-10,8.1C109.2,133.1,91.6,134.8,74,134.4L74,134.4z"/>
		<path class="st4" d="M16.4,96.1c-0.4-12.5,1-25,4.3-37c1.1-3.5,5.9-6.2,12.8-8.2c10.7-3,26.8-4.3,42.7-3.9s31.9,2.4,42.5,5.9
			c6.9,2.3,11.5,5.2,12.4,8.8c2.7,12.2,3.5,24.7,2.4,37.2c-2.3,1.1-4.7,1.9-7.2,2.4c-1,0.1-2,0.5-3.1,0.7c1.6-9,2-18.2,1.1-27.3
			c-0.3-1.7-1.4-2.1-3.1-2.4c-8.8-1.9-17.7-3.1-26.6-3.8c-0.7-0.1-1.3,0.3-1.5,1c-1.2,4.2-3.3,12.1-5.2,16
			C85.7,89,66.4,89,64.3,85.5c-1.7-4-5.1-12.5-6.1-16.7c-0.2-0.6-0.7-1-1.4-1c-9,0.2-17.9,1-26.7,2.4c-1.7,0.3-3,0.5-3.2,2.2
			c-1.4,9.1-1.5,18.3-0.3,27.4l-3-0.9C21,98.2,18.6,97.3,16.4,96.1L16.4,96.1z"/>
		<path class="st5" d="M50.8,47.9c1.5,2.6,3.3,5,5.3,7.3c6.5,1.8,13.2,2.7,19.9,2.7c6.7,0.4,13.4-0.2,20-1.7c1.8-1.9,3.9-4.8,5.6-7
			c-0.8,3.4-2.5,6.5-4.7,9.2c-6.9,1.7-13.9,2.3-21,1.9c-7,0-14-1-20.7-2.9C53.2,54.4,51.7,51.3,50.8,47.9L50.8,47.9z"/>
		<path class="st6" d="M50.8,47.9c1.1,3,2.7,5.9,4.6,8.4c6.7,1.9,13.6,2.8,20.5,2.7c6.9,0.4,13.9-0.2,20.7-1.8
			c2.1-2.5,3.8-5.2,5-8.2l2.3,0.4c-1.3,2.7-4.1,8.6-6.4,10c-7.1,1.7-14.3,2.3-21.6,1.9c-7.3,0-14.5-1-21.5-3
			c-2.3-1.5-4.8-7.4-5.9-10.3C49.2,48.1,50,48.1,50.8,47.9L50.8,47.9z"/>
		<path class="st7" d="M75.2,87.9c5.4,0.1,12.9-0.7,13.9-3c1.7-5.1,3-10.4,3.9-15.8c0.1-0.7,0.7-1.3,1.4-1.2
			c9.8,0.7,19.5,2.3,29,4.8c1.7,0.5,3.1,0.8,3.3,3c1.2,14.6,0.2,29.3-3.1,43.5c-0.5,1.9-5.2,4-6.7,4.6c-6,2.2-12.3,3.6-18.6,4.2
			c-8,1-16.1,1.3-24.2,1.1C66,129,58,128.3,50,127c-6.3-0.9-12.6-2.6-18.5-5c-1.4-0.6-6-3-6.4-5c-2.5-14.4-2.8-29.2-0.9-43.7
			c0.3-2.1,1.6-2.5,3.4-2.9c9.6-2,19.4-3.1,29.2-3.3c0.7,0,1.3,0.5,1.4,1.3c0.6,5.4,1.6,10.7,3.1,15.9
			C62.3,86.6,69.8,87.8,75.2,87.9L75.2,87.9z"/>
		<path class="st3" d="M41.3,90.4c-0.8,4.3-0.9,8.8-0.3,13.2c1,6.4,12.8,6.8,13.7,0.4c0.6-4.4,0.7-8.8,0.3-13.2
			C54.5,84.3,42.6,83.9,41.3,90.4z M108.8,92.1c0.6,4.4,0.5,8.8-0.3,13.2c-1.3,6.4-13.1,6.2-13.7-0.3c-0.4-4.4-0.3-8.8,0.3-13.2
			C96,85.3,107.9,85.6,108.8,92.1z"/>
		<path class="st8" d="M83.9,114.2c-2.1,9-16,8.7-17.6-0.4c-0.1-0.7,0.6-1.3,1.3-1.2c4.9,1.2,10.1,1.3,15,0.4
			C83.4,112.8,84,113.5,83.9,114.2z"/>
	</g>
	<circle class="st3" cx="61.7" cy="13.3" r="7.3"/>
</g>
</svg>
