<svg xmlns="http://www.w3.org/2000/svg" width="151" height="151" fill="none"><path fill="#fff" d="M.816.27h150v150h-150z"/><path fill="#222" d="M30.14 19.497h68.477c6.274 0 11.369 5.095 11.369 11.37v102.996c0 6.274-5.095 11.373-11.373 11.373H30.14c-6.274 0-11.37-5.095-11.37-11.37v-103c0-6.274 5.096-11.37 11.37-11.37Z"/><path fill="#2D87F1" d="M34.347 15.29h68.477c6.274 0 11.369 5.095 11.369 11.37v102.996c0 6.274-5.095 11.373-11.373 11.373H34.347c-6.274 0-11.37-5.095-11.37-11.37v-103c0-6.274 5.096-11.37 11.37-11.37Z"/><path fill="#fff" d="M104.843 131.679V24.64H32.328v107.039h72.515Z"/><path fill="#222" d="M77.308 10.746H53.56a8.023 8.023 0 0 0-8.024 8.027 8.02 8.02 0 0 0 8.024 8.023h23.748a8.022 8.022 0 0 0 8.023-8.023 8.026 8.026 0 0 0-8.023-8.027Z"/><path fill="#222" d="M64.146 2.399c-2.935.587-4.94 3.339-4.94 6.332v7.078c0 2.993 2.005 5.744 4.94 6.332a6.235 6.235 0 0 0 7.515-6.098V8.496A6.235 6.235 0 0 0 64.146 2.4ZM66 10.595a2.282 2.282 0 0 1-2.773-2.773 2.255 2.255 0 0 1 1.64-1.64 2.282 2.282 0 0 1 2.774 2.772A2.255 2.255 0 0 1 66 10.594Z"/><path fill="#2D87F1" d="M80.464 10.746h-23.75a8.023 8.023 0 0 0-8.022 8.027 8.02 8.02 0 0 0 8.023 8.023h23.749a8.022 8.022 0 0 0 8.023-8.023 8.026 8.026 0 0 0-8.023-8.027Z"/><path fill="#2D87F1" d="M67.302 2.399c-2.936.587-4.94 3.339-4.94 6.332v7.078c0 2.993 2.004 5.744 4.94 6.332a6.235 6.235 0 0 0 7.514-6.098V8.496A6.235 6.235 0 0 0 67.302 2.4Zm1.853 8.196a2.282 2.282 0 0 1-2.773-2.773 2.255 2.255 0 0 1 1.64-1.64 2.282 2.282 0 0 1 2.774 2.772 2.255 2.255 0 0 1-1.641 1.64Z"/><path fill="#DFE5E9" d="m94.32 41.422-50.079-.157-.005 1.608 50.08.158.004-1.609ZM94.293 48.771l-50.079-.157-.005 1.608 50.08.157.004-1.608ZM94.274 56.12l-50.079-.157-.005 1.608 50.08.157.004-1.608ZM94.25 63.469l-50.078-.158-.005 1.609 50.079.157.005-1.608ZM94.224 70.817l-50.079-.157-.005 1.608 50.079.157.005-1.608ZM94.205 78.166l-50.079-.157-.005 1.608 50.079.157.005-1.608ZM94.178 85.515 44.1 85.358l-.005 1.608 50.08.157.004-1.608ZM94.158 92.864l-50.079-.158-.005 1.608 50.08.158.004-1.608ZM94.136 100.213l-50.08-.158-.004 1.609 50.079.157.005-1.608ZM94.109 107.558l-50.08-.158-.004 1.609 50.079.157.005-1.608ZM94.09 114.906l-50.08-.157-.005 1.608 50.08.158.004-1.609Z"/><circle cx="107.629" cy="96.772" r="39.044" fill="#46BF40"/><path fill="#fff" d="M112.297 109.899h-10.425c0-2.131.146-4.008.436-5.63.315-1.647.848-3.124 1.598-4.431.751-1.308 1.768-2.519 3.051-3.633a33.313 33.313 0 0 0 2.943-2.724c.823-.872 1.452-1.756 1.888-2.652a6.472 6.472 0 0 0 .654-2.87c0-1.258-.181-2.288-.545-3.087-.339-.799-.859-1.392-1.562-1.78-.678-.411-1.537-.617-2.578-.617-.848 0-1.647.206-2.398.618-.726.411-1.32 1.053-1.78 1.925-.46.847-.714 1.973-.762 3.378H90.503c.073-3.608.872-6.538 2.397-8.79 1.55-2.277 3.609-3.935 6.175-4.977 2.591-1.065 5.485-1.598 8.682-1.598 3.535 0 6.574.545 9.117 1.635 2.542 1.09 4.491 2.712 5.848 4.867 1.356 2.13 2.034 4.758 2.034 7.882 0 2.082-.4 3.899-1.199 5.448-.775 1.526-1.828 2.955-3.16 4.287a159.188 159.188 0 0 1-4.395 4.213c-1.405 1.235-2.361 2.494-2.87 3.778-.508 1.259-.787 2.845-.835 4.758Zm-11.914 11.042c0-1.743.63-3.196 1.889-4.359 1.259-1.186 2.893-1.78 4.903-1.78s3.645.594 4.904 1.78c1.259 1.163 1.889 2.616 1.889 4.359 0 1.744-.63 3.209-1.889 4.395-1.259 1.162-2.894 1.744-4.904 1.744s-3.644-.582-4.903-1.744c-1.259-1.186-1.889-2.651-1.889-4.395Z"/></svg>