<svg xmlns="http://www.w3.org/2000/svg" width="151" height="151" fill="none"><path fill="#fff" d="M.152.667h150v150h-150z"/><path fill="#002618" d="M68.957 143.471c34.051 0 61.654-27.669 61.654-61.8 0-34.132-27.603-61.8-61.654-61.8S7.302 47.538 7.302 81.67c0 34.131 27.604 61.8 61.655 61.8Z"/><path fill="#3C206A" d="M68.957 121.439c21.911 0 39.674-17.805 39.674-39.768 0-21.964-17.763-39.768-39.674-39.768-21.912 0-39.674 17.804-39.674 39.768 0 21.963 17.762 39.768 39.674 39.768Z"/><path fill="#3C206A" d="M68.957 100.081c10.143 0 18.367-8.243 18.367-18.41 0-10.168-8.224-18.41-18.367-18.41-10.144 0-18.367 8.242-18.367 18.41 0 10.167 8.223 18.41 18.367 18.41Z"/><path fill="#2D87F1" d="M74.957 139.471c34.051 0 61.654-27.669 61.654-61.8 0-34.132-27.603-61.8-61.654-61.8s-61.655 27.668-61.655 61.8c0 34.131 27.604 61.8 61.655 61.8Z"/><path fill="#fff" d="M74.957 127.243c27.313 0 49.455-22.194 49.455-49.572 0-27.379-22.142-49.573-49.455-49.573-27.314 0-49.456 22.194-49.456 49.573 0 27.378 22.142 49.572 49.456 49.572Z"/><path fill="#2D87F1" d="M74.957 117.439c21.911 0 39.674-17.805 39.674-39.768 0-21.964-17.763-39.768-39.674-39.768-21.912 0-39.675 17.804-39.675 39.768 0 21.963 17.763 39.768 39.675 39.768Z"/><path fill="#fff" d="M74.957 106.735c16.014 0 28.995-13.013 28.995-29.064 0-16.052-12.981-29.065-28.995-29.065-16.014 0-28.996 13.013-28.996 29.065 0 16.051 12.982 29.064 28.996 29.064Z"/><path fill="#2D87F1" d="M74.957 96.08c10.143 0 18.367-8.242 18.367-18.41 0-10.167-8.224-18.41-18.367-18.41-10.144 0-18.367 8.243-18.367 18.41 0 10.168 8.223 18.41 18.367 18.41Z"/><path fill="#fff" d="M74.957 86.938c5.106 0 9.245-4.15 9.245-9.267 0-5.119-4.14-9.268-9.245-9.268-5.107 0-9.246 4.15-9.246 9.268s4.14 9.267 9.246 9.267Z"/><path fill="#46BF40" d="M131.262 102.886 78.2 75.341c-1.224-.632-2.741-.176-3.389 1.018-.648 1.194-.18 2.675 1.044 3.307l53.17 27.657c.846-1.405 1.518-2.956 2.243-4.431l-.006-.006Z" opacity=".8" style="mix-blend-mode:multiply"/><path fill="#46BF40" d="M126.423 28.989 76.85 78.562a2.032 2.032 0 0 1-2.875-.004 2.032 2.032 0 0 1-.003-2.874l49.573-49.573a2.031 2.031 0 0 1 2.874.003c.796.796.797 2.081.004 2.875Z"/><path fill="#46BF40" d="m114.115 38.42 13.774-13.776-.022-18.965-14.637 14.636.885 18.104Z"/><path fill="#46BF40" d="m114.115 38.42 13.774-13.776 18.966.023-14.637 14.636-18.103-.884Z"/></svg>