<svg xmlns="http://www.w3.org/2000/svg" width="151" height="151" fill="none"><path fill="#fff" d="M.816.836h150v150h-150z"/><path fill="#222" d="m106.277 27.202-11.097.445.429 10.715 11.096-.445-.428-10.715ZM93.191 44.94l-7.265 7.884 8.164 7.532 7.265-7.884-8.164-7.532ZM79.522 55.782l-10.709.43.446 11.104 10.708-.432-.445-11.102ZM54.343 46.471l-7.535 8.163 7.872 7.276 7.536-8.163-7.873-7.276ZM50.984 29.402l-11.096.45.431 10.714 11.097-.449-.432-10.714ZM62.586 104.548l-1.526 23.045 25.429.045-3.029-22.148-20.874-.942Z"/><path fill="#222" d="M96.61 126.819H50.937v3.211H96.61v-3.211ZM142.091 21.83l-.085 75.75-.005 5.798c-.005 3.72-2.683 6.743-5.991 6.766l-124.408.85c-3.344.022-6.066-3.023-6.061-6.788l.01-6.244.136-75.652c.01-3.727 2.692-6.75 6.005-6.761l62.123-.253 62.231-.254c3.338-.01 6.051 3.034 6.046 6.789h-.001Z"/><path fill="#D5E7FC" d="m66.586 102.548-1.526 23.045 25.429.045-3.029-22.148-20.874-.942Z"/><path fill="#46BF40" d="M100.61 124.819H54.937v3.211h45.673v-3.211Z"/><path fill="#D5E7FC" d="m146.091 17.835-.085 75.745-.005 5.798c-.005 3.721-2.683 6.743-5.991 6.766l-124.408.85c-3.344.022-6.066-3.022-6.061-6.788l.01-6.243.136-75.648c.01-3.727 2.692-6.75 6.005-6.761l62.123-.253 62.231-.254c3.338-.01 6.051 3.034 6.046 6.788h-.001Z"/><path fill="#2D87F1" d="m146.006 95.068-.005 5.155a6.029 6.029 0 0 1-5.991 6.015l-124.408.757a6.026 6.026 0 0 1-6.061-6.036l.01-5.55 136.455-.341Z"/><path fill="#fff" d="M101.842 20.009a1.059 1.059 0 0 0 1.065 1.064l6.478-.045c1.055-.007 1.064-1.143 1.053-1.117a1.058 1.058 0 0 0-1.079-1.086l-6.481.133a1.058 1.058 0 0 0-1.036 1.051ZM21.803 20.009a1.058 1.058 0 0 0 1.065 1.064l6.478-.045c1.055-.007 1.064-1.143 1.052-1.117a1.058 1.058 0 0 0-1.078-1.086l-6.481.133a1.058 1.058 0 0 0-1.036 1.051ZM113.486 19.97a1.058 1.058 0 0 0 1.055 1.073l6.479.015a1.06 1.06 0 0 0 1.06-1.02c-.007-.015.047-1.197-1.066-1.184l-6.482.075a1.057 1.057 0 0 0-1.045 1.04h-.001ZM125.151 20.071c.005.59.491 1.061 1.08 1.048l6.478-.138a1.056 1.056 0 0 0 1.034-1.043c-.006-.016.02-1.198-1.093-1.16l-6.478.228a1.058 1.058 0 0 0-1.021 1.065Z"/><path fill="#F7FAFE" d="M25.383 40.566h-1.727v48.786h1.727V40.566Z"/><path fill="#F7FAFE" d="M93.964 84.157H19.332v1.731h74.632v-1.731Z"/><path fill="#fff" d="M35.841 70.522h-7.996v11.167h7.996V70.522Z" opacity=".8"/><path fill="#AFCCF1" d="M43.858 66.488h-7.996v15.19h7.996v-15.19Z" opacity=".8"/><path fill="#fff" d="M51.885 58.92h-7.996v22.77h7.996V58.92Z" opacity=".8"/><path fill="#AFCCF1" d="M75.915 58.92h-7.996v22.77h7.996V58.92Z" opacity=".8"/><path fill="#fff" d="M67.897 53.351h-7.996v28.338h7.996V53.351Z" opacity=".8"/><path fill="#AFCCF1" d="M91.928 53.351h-7.996v28.338h7.996V53.351ZM59.901 46.01h-7.996v35.68h7.996V46.01Z" opacity=".8"/><path fill="#fff" d="M83.931 46.01h-7.995v35.68h7.995V46.01Z" opacity=".8"/><path fill="#fff" d="m106.168 58.92-.027 12.63 27.525-.259.077-12.046-27.575-.326ZM106.141 77.174v8.138l15.411-.037.195-7.936-15.606-.165ZM106.141 47.643v8.138l18.774-.037.236-7.936-19.01-.165Z"/></svg>