<svg xmlns="http://www.w3.org/2000/svg" width="151" height="151" fill="none"><path fill="#fff" d="M.65.64h150v150H.65z"/><path fill="#002618" d="m38.61 64.507 20.588-48.743c.568-2.222 32.495 32.185 32.495 32.185L56.59 82.511 38.61 64.533v-.026Z"/><path fill="#002618" d="m57.364 20.13 52.798 52.824-43.887 19.218-13.82-13.82L76.84 53.916 53.101 30.178l4.263-10.049ZM78.548 106.119l-.913-.913a3.87 3.87 0 0 0-5.48-.001l-6.01 6.008a3.87 3.87 0 0 0-.001 5.48l.913.913a3.87 3.87 0 0 0 5.48.001l5.991-5.99a3.869 3.869 0 0 0 .001-5.479l.019-.019ZM20.71 91.836l-4.754-4.676L38.61 64.507l4.701 4.727h.026l.026.026 4.391 4.417.026.025 4.675 4.65-22.653 22.654-4.65-4.701-4.443-4.47Z"/><path fill="#002618" d="m34.529 105.682-4.753-4.702L52.43 78.327l4.7 4.727.027.025h.026l4.39 4.418h.027l4.675 4.675-22.654 22.654-4.65-4.727-4.442-4.417ZM74.696 141.715c1.524 1.524 3.978 1.499 5.502 0l12.967-12.967a3.882 3.882 0 0 0 0-5.502l-.904-.904a3.882 3.882 0 0 0-5.502 0l-12.967 12.967c-1.524 1.524-1.524 3.978 0 5.476l.904.93ZM90.505 40.226l27.406 27.407c1.292 1.291 1.292 3.435 0 4.752l-1.782 1.783a3.352 3.352 0 0 1-4.753 0l-27.38-27.38 6.509-6.562Z"/><path fill="#002618" d="M84.02 46.787 56.615 19.38a3.352 3.352 0 0 1 0-4.753l1.783-1.782a3.352 3.352 0 0 1 4.752 0l27.407 27.407-6.535 6.535ZM48.504 109.918l12.89-12.89 4.855-4.856a6.86 6.86 0 0 0 0 9.712l20.459 20.458-12.89 12.89-20.458-20.458a6.86 6.86 0 0 0-9.713 0l4.857-4.856ZM18.075 89.201 42.2 113.327a14.6 14.6 0 0 1-5.605 3.488L14.588 94.807a14.886 14.886 0 0 1 3.487-5.632v.026ZM16.99 97.235l17.203 17.203c-4.004 1.369-8.602.465-11.78-2.712l-2.686-2.687a11.428 11.428 0 0 1-2.738-11.804Z"/><path fill="#002618" d="m82.239 31.96 17.203 17.203c1.369-4.004.465-8.576-2.712-11.753l-2.687-2.686a11.429 11.429 0 0 0-11.804-2.738v-.026ZM104.376 23.617a2.089 2.089 0 0 0 0 2.97 2.09 2.09 0 0 0 2.971 0l9.944-9.945c.827-.826.827-2.17 0-2.97a2.089 2.089 0 0 0-2.97 0l-9.945 9.945ZM110.188 33.768a2.127 2.127 0 0 0-2.118 2.118c0 1.163.93 2.093 2.092 2.118h14.078a2.128 2.128 0 0 0 2.118-2.118c0-1.162-.93-2.118-2.118-2.118h-14.078.026ZM93.088 20.543c0 1.162.956 2.118 2.118 2.118a2.1 2.1 0 0 0 2.093-2.093V6.466c0-1.163-.956-2.118-2.093-2.093-1.162 0-2.118.93-2.118 2.093v14.078Z"/><path fill="#2D87F1" d="m41.698 67.565 20.588-48.743c.568-2.221 32.495 32.186 32.495 32.186L59.677 85.569 41.698 67.591v-.026Z"/><path fill="#2D87F1" d="m60.451 23.188 52.799 52.824L69.363 95.23l-13.82-13.82 24.385-24.435-23.739-23.739 4.262-10.048Z"/><path fill="#D5E7FC" d="m81.635 109.178-.913-.914a3.87 3.87 0 0 0-5.48-.001l-6.01 6.009a3.869 3.869 0 0 0 0 5.479l.913.914a3.87 3.87 0 0 0 5.48.001l5.991-5.99a3.87 3.87 0 0 0 .001-5.48l.018-.018ZM23.797 94.894l-4.753-4.675 22.654-22.654 4.701 4.727h.026l.026.026 4.391 4.417.026.026 4.675 4.65-22.654 22.653-4.65-4.701-4.442-4.469Z"/><path fill="#D5E7FC" d="m37.617 108.74-4.753-4.701 22.653-22.654 4.702 4.727.026.026h.025l4.392 4.417h.025l4.676 4.675-22.654 22.654-4.65-4.727-4.442-4.417ZM77.784 144.774c1.524 1.524 3.978 1.498 5.502 0l12.967-12.967a3.882 3.882 0 0 0 0-5.502l-.904-.904a3.882 3.882 0 0 0-5.502 0L76.88 138.368c-1.524 1.524-1.524 3.978 0 5.476l.904.93ZM93.593 43.285l27.406 27.406c1.292 1.292 1.292 3.436 0 4.753l-1.782 1.782a3.352 3.352 0 0 1-4.753 0l-27.38-27.38 6.508-6.561Z"/><path fill="#D5E7FC" d="M87.109 49.845 59.702 22.44a3.352 3.352 0 0 1 0-4.753l1.782-1.782a3.352 3.352 0 0 1 4.753 0L93.644 43.31l-6.535 6.535Z"/><path fill="#2D87F1" d="m51.591 112.976 12.89-12.889 4.856-4.857a6.86 6.86 0 0 0 0 9.713l20.458 20.458-12.89 12.89-20.457-20.459a6.86 6.86 0 0 0-9.713 0l4.856-4.856ZM21.163 92.26l24.126 24.126a14.597 14.597 0 0 1-5.606 3.487L17.675 97.865a14.884 14.884 0 0 1 3.488-5.631v.026Z"/><path fill="#D5E7FC" d="m20.077 100.293 17.204 17.204c-4.004 1.369-8.602.465-11.78-2.713l-2.686-2.686a11.429 11.429 0 0 1-2.738-11.805Z"/><path fill="#46BF40" d="m85.326 35.018 17.204 17.204c1.369-4.004.465-8.576-2.713-11.753l-2.686-2.687a11.428 11.428 0 0 0-11.805-2.738v-.026ZM107.464 26.675a2.088 2.088 0 0 0 0 2.97 2.089 2.089 0 0 0 2.97 0l9.945-9.944c.827-.827.827-2.17 0-2.97a2.089 2.089 0 0 0-2.97 0l-9.945 9.944ZM113.276 36.827a2.127 2.127 0 0 0-2.118 2.118c0 1.162.929 2.092 2.092 2.118h14.078a2.128 2.128 0 0 0 2.118-2.118c0-1.163-.93-2.118-2.118-2.118H113.25h.026ZM96.176 23.601c0 1.163.956 2.118 2.118 2.118a2.1 2.1 0 0 0 2.092-2.092V9.523c0-1.162-.956-2.118-2.092-2.092-1.162 0-2.118.93-2.118 2.092v14.078Z"/></svg>