<svg xmlns="http://www.w3.org/2000/svg" width="151" height="151" fill="none"><path fill="#fff" d="M.972.613h150v150h-150z"/><path fill="#222" d="M137.863 27.111H7.65v114.795a4 4 0 0 0 4 4h122.213a4 4 0 0 0 4-4V27.111Z"/><path fill="#222" d="M133.863 15.688H11.65a4 4 0 0 0-4 4v7.423h130.213v-7.423a4 4 0 0 0-4-4Z"/><path fill="#222" d="M14.617 23.202a1.803 1.803 0 1 0 0-3.606 1.803 1.803 0 0 0 0 3.606ZM20.16 23.202a1.803 1.803 0 1 0 0-3.606 1.803 1.803 0 0 0 0 3.606ZM122.524 39.4h-57.39a2 2 0 0 0-2 2v36.446a2 2 0 0 0 2 2h57.39a2 2 0 0 0 2-2V41.4a2 2 0 0 0-2-2ZM40.827 86.935H22.632a2 2 0 0 0-2 2v18.195a2 2 0 0 0 2 2h18.195a2 2 0 0 0 2-2V88.935a2 2 0 0 0-2-2ZM68.217 86.935H50.022a2 2 0 0 0-2 2v18.195a2 2 0 0 0 2 2h18.195a2 2 0 0 0 2-2V88.935a2 2 0 0 0-2-2ZM96.079 86.935H77.884a2 2 0 0 0-2 2v18.195a2 2 0 0 0 2 2h18.195a2 2 0 0 0 2-2V88.935a2 2 0 0 0-2-2ZM122.524 86.935h-17.723a2 2 0 0 0-2 2v18.195a2 2 0 0 0 2 2h17.723a2 2 0 0 0 2-2V88.935a2 2 0 0 0-2-2ZM56.41 39.4H22.16a2 2 0 0 0-2 2v36.446a2 2 0 0 0 2 2h34.25a2 2 0 0 0 2-2V41.4a2 2 0 0 0-2-2ZM108.898 117.522H17.563a2 2 0 0 0-2 2v12.056a2 2 0 0 0 2 2h91.335v-16.056Z"/><path fill="#222" d="M122.524 117.522h-16.889v16.056h16.889a2 2 0 0 0 2-2v-12.056a2 2 0 0 0-2-2Z"/><path fill="#fff" stroke="#2D87F1" stroke-width="5" d="M15.366 136.722V24.427h125.213v112.295a1.5 1.5 0 0 1-1.5 1.5H16.866a1.5 1.5 0 0 1-1.5-1.5Z"/><path fill="#2D87F1" d="M139.079 10.504H16.866a4 4 0 0 0-4 4v7.423h130.213v-7.423a4 4 0 0 0-4-4Z"/><path fill="#fff" d="M19.832 18.018a1.803 1.803 0 1 0 0-3.606 1.803 1.803 0 0 0 0 3.606ZM25.375 18.018a1.803 1.803 0 1 0 0-3.606 1.803 1.803 0 0 0 0 3.606Z"/><path fill="#2D87F1" d="M127.739 34.216h-57.39a2 2 0 0 0-2 2v36.446a2 2 0 0 0 2 2h57.39a2 2 0 0 0 2-2V36.216a2 2 0 0 0-2-2ZM46.042 81.751H27.847a2 2 0 0 0-2 2v18.195a2 2 0 0 0 2 2h18.195a2 2 0 0 0 2-2V83.751a2 2 0 0 0-2-2ZM73.432 81.751H55.237a2 2 0 0 0-2 2v18.195a2 2 0 0 0 2 2h18.195a2 2 0 0 0 2-2V83.751a2 2 0 0 0-2-2ZM101.294 81.751H83.099a2 2 0 0 0-2 2v18.195a2 2 0 0 0 2 2h18.195a2 2 0 0 0 2-2V83.751a2 2 0 0 0-2-2ZM127.739 81.751h-17.723a2 2 0 0 0-2 2v18.195a2 2 0 0 0 2 2h17.723a2 2 0 0 0 2-2V83.751a2 2 0 0 0-2-2ZM61.626 34.216H27.375a2 2 0 0 0-2 2v36.446a2 2 0 0 0 2 2h34.251a2 2 0 0 0 2-2V36.216a2 2 0 0 0-2-2ZM114.113 112.338H22.778a2 2 0 0 0-2 2v12.056a2 2 0 0 0 2 2h91.335v-16.056Z" opacity=".2"/><path fill="#46BF40" d="M127.739 112.338H110.85v16.056h16.889a2 2 0 0 0 2-2v-12.056a2 2 0 0 0-2-2Z"/></svg>