<svg xmlns="http://www.w3.org/2000/svg" width="15" height="16" fill="none"><path fill="#2D87F1" fill-rule="evenodd" d="M1.66.196h11.68c.916 0 1.66.744 1.66 1.66v9.042c0 .918-.744 1.732-1.66 1.732H8.45c-.422 0-.828-.029-1.136.26l-2.002 1.916c-.876.821-2.5.269-2.5-.933 0-.757-.478-1.243-1.236-1.243h-.102C.66 12.63 0 11.97 0 11.156v-9.3C0 .94.744.197 1.66.197Zm5.398 2.076a.83.83 0 0 0-.83.83v5.812c0 .459.372.83.83.83h.83a.83.83 0 0 0 .831-.83V3.102a.83.83 0 0 0-.83-.83h-.83Zm-3.321 2.49a.83.83 0 0 0-.83.831v3.321c0 .459.371.83.83.83h.83a.83.83 0 0 0 .83-.83v-3.32a.83.83 0 0 0-.83-.831h-.83ZM9.55 7.255a.83.83 0 0 1 .83-.83h.83a.83.83 0 0 1 .83.83v1.66a.83.83 0 0 1-.83.83h-.83a.83.83 0 0 1-.83-.83v-1.66Z" clip-rule="evenodd"/></svg>