<svg xmlns="http://www.w3.org/2000/svg" width="15" height="16" fill="none"><path fill="#A7A7A7" d="M7.493.196C3.375.196 0 3.571 0 7.69c0 4.133 3.389 7.522 7.521 7.507 4.133-.014 7.493-3.389 7.479-7.507C14.986 3.557 11.611.196 7.493.196ZM5.019 5.201c.458 0 .815.4.815.858 0 .458-.4.815-.858.815-.457 0-.815-.4-.815-.858 0-.457.4-.815.858-.815Zm5.377 5.477c-.815.786-1.788 1.158-2.903 1.186-1.116-.028-2.088-.4-2.903-1.186-.343-.33-.372-.83-.071-1.173.3-.343.8-.386 1.172-.071.458.386.944.686 1.544.729.673.057 1.259-.1 1.788-.515.1-.071.186-.157.286-.229.386-.3.872-.271 1.172.072.3.343.272.844-.071 1.172l-.014.015ZM9.98 6.86a.842.842 0 0 1-.83-.844c0-.457.387-.83.844-.83.458 0 .83.387.83.844 0 .458-.386.83-.844.83Z"/></svg>