<svg xmlns="http://www.w3.org/2000/svg" width="16" height="16" fill="none"><path fill="#A7A7A7" fill-rule="evenodd" d="m9.654.268-.05-.072L9.6.203 9.326.64c-.36.575-.714 1.14-1.073 1.7a.36.36 0 0 1-.194.142c-.39.103-.784.201-1.176.3l-.408.102c-.281.071-.562.143-.858.22.02.023.036.045.051.064a750 750 0 0 1 .341.413c.391.472.783.943 1.18 1.411.09.104.124.205.114.34-.045.619-.086 1.238-.127 1.857l-.03.457a1.722 1.722 0 0 0 0 .145l.014-.005c.069-.025.126-.046.182-.068l.416-.168c.573-.23 1.145-.46 1.72-.686a.387.387 0 0 1 .256 0 33.986 33.986 0 0 1 1.07.424l1.255.505.001-.09a1.717 1.717 0 0 0-.001-.15l-.05-.762c-.035-.508-.069-1.015-.098-1.523a.357.357 0 0 1 .075-.228 266.446 266.446 0 0 1 1.52-1.831.673.673 0 0 0 .05-.067l.032-.044-.014-.004a2.519 2.519 0 0 0-.117-.035l-.153-.039c-.707-.18-1.412-.359-2.12-.533a.363.363 0 0 1-.246-.174A237.664 237.664 0 0 0 9.654.268ZM7.479 3.917a29.354 29.354 0 0 0-.239-.292h.003l.123-.03c.445-.112.866-.217 1.284-.33a.348.348 0 0 0 .183-.132c.202-.31.4-.625.602-.949l.173-.274.001.002c.039.053.069.095.096.14l.235.374c.147.235.293.47.444.7.043.063.123.12.196.14.296.081.594.155.89.23l.342.085c.043.01.085.024.139.042l.018.006-.005.005c-.037.05-.065.088-.094.124l-.283.34c-.175.208-.35.417-.52.63a.397.397 0 0 0-.083.241c.012.272.03.542.05.814l.025.365.01.19.003.074-.087-.036a13.815 13.815 0 0 0-.32-.127c-.296-.118-.592-.235-.885-.358a.387.387 0 0 0-.33-.004c-.3.128-.602.248-.904.368l-.233.092c-.026.01-.052.02-.083.03l-.08.028.012-.21c.01-.186.02-.365.032-.545l.004-.13c.003-.103.005-.207.028-.307.062-.276-.034-.477-.22-.677-.182-.195-.352-.404-.527-.62ZM.001 8.788h-.002l.002-.003v.003Zm0 0v6.396l.07.006c.037.003.073.006.11.006h1.964c2.618 0 5.235 0 7.853-.003.102 0 .22-.038.303-.097.734-.518 1.466-1.039 2.199-1.559.732-.52 1.465-1.04 2.199-1.559.438-.31.726-.707.807-1.243a.062.062 0 0 1 .012-.025l.009-.014v-.455l-.012-.027c-.008-.018-.016-.037-.019-.055a1.76 1.76 0 0 0-.32-.727 1.74 1.74 0 0 0-2.366-.414c-.242.16-.477.328-.713.498l-.314.224a.257.257 0 0 0-.016-.016.084.084 0 0 1-.02-.023c-.346-.635-.887-.916-1.604-.911-.898.007-1.796.004-2.694 0h-.337a.437.437 0 0 1-.213-.051c-1.063-.62-2.124-.619-3.187-.004a.35.35 0 0 1-.167.053H.001Zm8.416 2.417h-.184v.902l.043.004c.04.003.078.005.117.005H9c.404.001.808.002 1.212 0 .827-.003 1.42-.45 1.663-1.241a.333.333 0 0 1 .11-.15c.423-.307.845-.608 1.271-.908.409-.288.92-.213 1.198.168.282.39.196.908-.213 1.201a1297.803 1297.803 0 0 1-4.286 3.046.325.325 0 0 1-.18.058c-1.88.002-3.76.002-5.64.002-.023 0-.044-.003-.07-.006a1.888 1.888 0 0 0-.055-.006V13.04c.001-1.088.001-2.175-.001-3.263 0-.104.03-.166.116-.223.73-.506 1.694-.482 2.44.054.075.053.181.09.273.09.568.003 1.137.003 1.705.003.569 0 1.137 0 1.705.002.576.004.935.563.695 1.072-.14.296-.383.43-.707.43H8.417ZM3.092 14.28H.914V9.71h2.178v4.569Z" clip-rule="evenodd"/></svg>