<svg xmlns="http://www.w3.org/2000/svg" width="19" height="15" fill="none">
    <path fill="currentColor" fill-rule="evenodd" d="M3.875 13.684c-.031.413.111.71.485.89l-.002-.003h.32c.272-.154.546-.307.82-.459.627-.348 1.254-.697 1.865-1.07.475-.287.949-.438 1.503-.396.32.025.642.019.966.013a23.3 23.3 0 0 1 .435-.006v-1.277H9.78c-.645 0-1.284-.001-1.922.005a.62.62 0 0 0-.277.097c-.487.273-.973.548-1.46.824H6.12l-.002.001-.728.412-.124.069c-.032.017-.067.035-.105.057v-.768c-.003-.434-.263-.7-.695-.7l-.5.001h-1c-.42-.003-.685-.268-.685-.69V2.79c0-.422.265-.69.685-.69h10.777c.431 0 .692.266.694.7v.568h1.276l.003-.255a5.637 5.637 0 0 0-.006-.53A1.911 1.911 0 0 0 14.118.853a2.02 2.02 0 0 0-.336-.03L10.168.82h-.002C7.756.82 5.35.818 2.942.821c-1.069.003-1.934.832-1.939 1.88-.01 2.69-.007 5.383 0 8.073.003.872.63 1.652 1.484 1.823.257.05.524.051.79.053.122 0 .244 0 .364.006h.237c0 .113.002.224.004.333.004.238.008.467-.008.695Zm-.3-10.29h9.574v1.255H3.576V3.393Zm0 5.436h6.697v1.254H3.576V8.83Zm15.423-2.173-.02.12c-.01.065-.021.128-.034.19a2 2 0 0 1-.545 1.024 7617.266 7617.266 0 0 1-4.44 4.437.735.735 0 0 1-.554.225c-.395-.003-.791-.002-1.187 0h-.593c-.446 0-.704-.26-.707-.708l.001-.593v-1.185a.75.75 0 0 1 .227-.555l1.475-1.475c.983-.984 1.965-1.967 2.952-2.945.595-.588 1.318-.749 2.1-.476.757.265 1.183.832 1.292 1.628.006.04.015.078.025.117l.008.035v.161Zm-3.782.666-.044.031a.354.354 0 0 0-.025.019c-.957.964-1.912 1.931-2.867 2.898h-.001c-.036.036-.076.086-.076.13-.005.227-.004.453-.003.684v.286h.25c.2-.002.393-.003.585.002a.383.383 0 0 0 .315-.125c.569-.58 1.14-1.156 1.712-1.734l1.028-1.04a.981.981 0 0 0 .081-.096l.019-.024-.487-.518h-.001l-.486-.518v.005Zm2.057-.01c.1-.093.195-.18.28-.277a.701.701 0 0 0-.034-.96c-.256-.263-.66-.308-.943-.08a2.715 2.715 0 0 0-.29.284c-.046.05-.092.1-.141.15l.485.516h.001l.485.517V7.46l.157-.147ZM3.569 7.204V5.951h8.615v1.253H3.57Z" clip-rule="evenodd" />
</svg>