<svg xmlns="http://www.w3.org/2000/svg" width="17" height="16" fill="none"><path fill="#A7A7A7" d="M.007 11.032V1.369c.007-.014.021-.028.021-.042C.148.682.532.277 1.163.1c.099-.028.205-.035.304-.057h9.762c.029.008.064.029.093.029.694.042 1.297.624 1.347 1.318.028.348.014.695.02 1.043v.61h2.716c.532 0 .985.17 1.29.616.142.206.206.468.305.702v10.988c-.043-.042-.092-.078-.135-.12-.921-.922-1.843-1.836-2.757-2.758a.42.42 0 0 0-.334-.135H5.296c-.178 0-.355-.007-.525-.056-.695-.192-1.113-.752-1.12-1.482V8.685H2.538a.353.353 0 0 0-.29.12c-.703.71-1.404 1.412-2.113 2.113-.043.043-.092.078-.135.12l.007-.006Zm11.683-7.99v-1.41c0-.39-.191-.582-.581-.582H1.58c-.39 0-.581.192-.581.581v6.835c0 .042 0 .092.014.163.298-.298.574-.582.858-.851a.341.341 0 0 1 .226-.092c.461-.007.922 0 1.376 0 .056 0 .113 0 .184-.007v-3.07c0-.518.184-.95.603-1.269.304-.234.652-.305 1.028-.305H11.69v.007Zm3.318 2.673h-9.35v.971H15v-.971h.007Zm-2 3.63v-.979h-7.35v.979h7.35Z"/></svg>