<svg xmlns="http://www.w3.org/2000/svg" width="15" height="16" fill="none"><path fill="#A7A7A7" fill-rule="evenodd" d="M.323 15.194A.678.678 0 0 1 0 14.871v-8.17c.026-.03.05-.063.076-.095.058-.074.115-.149.185-.21.384-.336.77-.67 1.155-1.004L2.57 4.39a.295.295 0 0 0 .091-.193c.007-.189.007-.377.006-.566v-.282c0-.302.18-.48.482-.482l.303-.001c.236-.001.471-.002.707.002.116.004.199-.034.285-.11C5 2.262 5.558 1.77 6.116 1.275L7.127.38c.273-.242.47-.24.744.002l.434.384c.762.674 1.523 1.347 2.287 2.018a.341.341 0 0 0 .205.078c.237.006.475.005.713.004l.267-.001c.395 0 .553.154.553.544v.215c-.002.192-.003.384.003.575.002.062.038.14.085.182.78.68 1.559 1.36 2.345 2.031a.629.629 0 0 1 .235.52c-.005 2.557-.005 5.114 0 7.67 0 .272-.074.473-.326.591l.002.002H.323Zm10.125-5.387c.3-.26.596-.519.895-.774a.276.276 0 0 0 .111-.233c-.002-.98-.002-1.96-.002-2.941v-.002l-.001-1.961c0-.046-.004-.095-.007-.14H3.553a.916.916 0 0 1-.004.019l-.003.033.001 5.036c0 .054.036.12.076.157.369.326.742.649 1.114.971l.253.217.99-.867L7.125 8.32c.276-.242.467-.244.743 0 .71.62 1.417 1.24 2.14 1.873v-.003l.439-.382Zm2.931 4.5-1.585-1.388v-.001a11492.52 11492.52 0 0 0-4.296-3.76l-1.466 1.285-.005.004-4.41 3.86H13.38ZM.883 13.78l1.341-1.175 2.094-1.833L2.78 9.435C2.15 8.886 1.518 8.339.883 7.787v5.994Zm13.224-.005a4875.986 4875.986 0 0 0-3.43-3.002l3.43-2.982v5.984ZM5.654 2.857h3.69c-.628-.556-1.234-1.092-1.846-1.631l-.85.752-.994.88Zm6.688 2.625v2.68l.509-.441 1.036-.901-.067-.058c-.494-.428-.977-.848-1.478-1.28ZM1.111 6.82l.563.489.98.852V5.484l-.616.534-.927.802Zm6.403-2.198h2.59c.355 0 .573.33.422.632-.088.175-.239.247-.431.246H4.9c-.352 0-.576-.313-.44-.613.086-.19.242-.267.448-.267a1322.711 1322.711 0 0 1 2.605 0v.002Zm-.893 2.636H10.091c.206 0 .362-.08.445-.271.132-.303-.095-.607-.448-.607H4.895c-.2 0-.352.083-.434.265-.134.293.084.613.424.613h1.736Z" clip-rule="evenodd"/></svg>