<svg xmlns="http://www.w3.org/2000/svg" width="15" height="16" fill="none"><path fill="#A7A7A7" d="M15 1.611v10.306s-.019.01-.019.019c-.225.937-.796 1.377-1.761 1.377H9.706a.332.332 0 0 0-.243.094l-1.49 1.49a5.3 5.3 0 0 1-.356.29h-.234c-.113-.094-.244-.178-.347-.281-.496-.487-.993-.984-1.48-1.48a.39.39 0 0 0-.29-.122H1.676c-.759 0-1.368-.431-1.593-1.124L0 11.898C.01 8.478.01 5.05.01 1.611c0-.019.018-.047.027-.066C.131 1.04.394.655.843.412c.178-.094.375-.14.572-.206h12.18c.018 0 .046.018.065.028.562.103.965.421 1.2.937.065.14.093.29.14.44ZM4.769 10.053c.019.056.028.13.056.196.113.235.375.3.628.17.646-.338 1.293-.676 1.94-1.022.084-.047.15-.047.224 0 .637.337 1.284.674 1.93 1.021.178.094.347.103.506-.01.169-.121.197-.29.169-.477l-.366-2.118c-.018-.103 0-.178.085-.253a75.71 75.71 0 0 0 1.518-1.48.604.604 0 0 0 .168-.243c.094-.282-.094-.525-.43-.572-.704-.103-1.397-.206-2.1-.3-.121-.019-.187-.065-.234-.178-.3-.628-.618-1.265-.927-1.883a.905.905 0 0 0-.178-.244c-.225-.168-.525-.084-.656.188-.319.637-.637 1.274-.937 1.911-.066.14-.16.187-.3.206-.693.094-1.387.188-2.08.3a.555.555 0 0 0-.328.187c-.16.178-.112.413.075.6.515.506 1.04 1.012 1.565 1.518a.24.24 0 0 1 .075.215c-.075.422-.15.834-.216 1.256-.056.337-.112.674-.178 1.021l-.01-.01Z"/></svg>