<svg xmlns="http://www.w3.org/2000/svg" width="16" height="18" fill="none"><path fill="#A7A7A7" d="M7.785.377h.489c.374.042.749.073 1.113.135 2.123.385 3.84 1.447 5.099 3.184 1.956 2.716 2.019 6.317.177 9.116-.073.114-.084.197-.031.312.426.968.853 1.925 1.28 2.893.166.385 0 .78-.396.936-.062.02-.114.042-.177.063h-.177c-.052-.021-.114-.052-.166-.073-.968-.479-1.936-.947-2.903-1.426-.115-.062-.198-.052-.323 0-1.696.885-3.496 1.124-5.37.75-1.685-.334-3.12-1.135-4.276-2.404C.304 11.844-.352 9.472.178 6.797c.354-1.831 1.311-3.34 2.737-4.536A7.803 7.803 0 0 1 6.93.47c.281-.042.573-.063.864-.094h-.01Zm.177 5.338c-.063-.041-.104-.073-.156-.104-1.208-.812-2.529-.229-3.101.562a2.246 2.246 0 0 0 .218 2.903c.791.822 1.592 1.644 2.393 2.466.469.479.947.479 1.416 0 .79-.811 1.57-1.613 2.351-2.424.094-.104.188-.208.26-.323.396-.562.396-1.186.25-1.831-.187-.853-1.03-1.852-2.279-1.78-.51.032-.957.209-1.363.52l.01.011Z"/></svg>