<?xml version="1.0" encoding="UTF-8" standalone="no"?>
<!DOCTYPE svg PUBLIC "-//W3C//DTD SVG 1.1//EN" "http://www.w3.org/Graphics/SVG/1.1/DTD/svg11.dtd">
<svg width="360px" height="60px" version="1.1" xmlns="http://www.w3.org/2000/svg" xmlns:xlink="http://www.w3.org/1999/xlink" xml:space="preserve" xmlns:serif="http://www.serif.com/" style="fill-rule:evenodd;clip-rule:evenodd;stroke-linejoin:round;stroke-miterlimit:2;">
    <g transform="matrix(1.09489,0,0,1.09489,-28.159,-66.7666)">
        <g transform="matrix(50,0,0,50,22.6186,105.93)">
            <path d="M0.487,-0.36C0.528,-0.351 0.56,-0.331 0.585,-0.3C0.61,-0.268 0.622,-0.232 0.622,-0.191C0.622,-0.132 0.602,-0.086 0.561,-0.051C0.52,-0.017 0.462,-0 0.389,-0L0.062,-0L0.062,-0.702L0.378,-0.702C0.449,-0.702 0.505,-0.686 0.546,-0.653C0.586,-0.62 0.606,-0.576 0.606,-0.52C0.606,-0.479 0.595,-0.444 0.574,-0.417C0.552,-0.39 0.523,-0.371 0.487,-0.36ZM0.233,-0.418L0.345,-0.418C0.373,-0.418 0.395,-0.424 0.409,-0.437C0.425,-0.449 0.432,-0.467 0.432,-0.491C0.432,-0.515 0.425,-0.533 0.409,-0.546C0.395,-0.559 0.373,-0.565 0.345,-0.565L0.233,-0.565L0.233,-0.418ZM0.359,-0.138C0.388,-0.138 0.41,-0.145 0.426,-0.158C0.441,-0.171 0.449,-0.189 0.449,-0.214C0.449,-0.239 0.441,-0.258 0.425,-0.272C0.408,-0.286 0.386,-0.293 0.357,-0.293L0.233,-0.293L0.233,-0.138L0.359,-0.138Z" style="fill:white;fill-rule:nonzero;"/>
        </g>
        <g transform="matrix(50,0,0,50,55.5686,105.93)">
            <path d="M0.42,-0L0.274,-0.265L0.233,-0.265L0.233,-0L0.062,-0L0.062,-0.702L0.349,-0.702C0.404,-0.702 0.452,-0.692 0.491,-0.673C0.53,-0.654 0.559,-0.627 0.578,-0.594C0.597,-0.56 0.607,-0.522 0.607,-0.481C0.607,-0.434 0.594,-0.393 0.568,-0.356C0.541,-0.319 0.502,-0.293 0.451,-0.278L0.613,-0L0.42,-0ZM0.233,-0.386L0.339,-0.386C0.37,-0.386 0.394,-0.394 0.409,-0.409C0.425,-0.424 0.433,-0.446 0.433,-0.474C0.433,-0.501 0.425,-0.522 0.409,-0.537C0.394,-0.552 0.37,-0.56 0.339,-0.56L0.233,-0.56L0.233,-0.386Z" style="fill:white;fill-rule:nonzero;"/>
        </g>
        <g transform="matrix(50,0,0,50,88.1686,105.93)">
            <path d="M0.499,-0.124L0.237,-0.124L0.195,-0L0.016,-0L0.27,-0.702L0.468,-0.702L0.722,-0L0.541,-0L0.499,-0.124ZM0.455,-0.256L0.368,-0.513L0.282,-0.256L0.455,-0.256Z" style="fill:white;fill-rule:nonzero;"/>
        </g>
        <g transform="matrix(50,0,0,50,125.019,105.93)">
            <path d="M0.69,-0L0.519,-0L0.233,-0.433L0.233,-0L0.062,-0L0.062,-0.702L0.233,-0.702L0.519,-0.267L0.519,-0.702L0.69,-0.702L0.69,-0Z" style="fill:white;fill-rule:nonzero;"/>
        </g>
        <g transform="matrix(50,0,0,50,162.619,105.93)">
            <path d="M0.325,-0.702C0.399,-0.702 0.464,-0.687 0.519,-0.658C0.574,-0.629 0.617,-0.588 0.648,-0.535C0.678,-0.482 0.693,-0.42 0.693,-0.351C0.693,-0.282 0.678,-0.221 0.648,-0.168C0.617,-0.115 0.574,-0.073 0.519,-0.044C0.463,-0.015 0.398,-0 0.325,-0L0.062,-0L0.062,-0.702L0.325,-0.702ZM0.314,-0.148C0.379,-0.148 0.429,-0.166 0.465,-0.201C0.501,-0.236 0.519,-0.286 0.519,-0.351C0.519,-0.416 0.501,-0.466 0.465,-0.502C0.429,-0.538 0.379,-0.556 0.314,-0.556L0.233,-0.556L0.233,-0.148L0.314,-0.148Z" style="fill:white;fill-rule:nonzero;"/>
        </g>
        <g transform="matrix(50,0,0,50,209.569,105.93)">
            <path d="M0.69,-0L0.519,-0L0.233,-0.433L0.233,-0L0.062,-0L0.062,-0.702L0.233,-0.702L0.519,-0.267L0.519,-0.702L0.69,-0.702L0.69,-0Z" style="fill:white;fill-rule:nonzero;"/>
        </g>
        <g transform="matrix(50,0,0,50,247.169,105.93)">
            <path d="M0.499,-0.124L0.237,-0.124L0.195,-0L0.016,-0L0.27,-0.702L0.468,-0.702L0.722,-0L0.541,-0L0.499,-0.124ZM0.455,-0.256L0.368,-0.513L0.282,-0.256L0.455,-0.256Z" style="fill:white;fill-rule:nonzero;"/>
        </g>
        <g transform="matrix(50,0,0,50,284.019,105.93)">
            <path d="M0.857,-0.702L0.857,-0L0.686,-0L0.686,-0.421L0.529,-0L0.391,-0L0.233,-0.422L0.233,-0L0.062,-0L0.062,-0.702L0.264,-0.702L0.461,-0.216L0.656,-0.702L0.857,-0.702Z" style="fill:white;fill-rule:nonzero;"/>
        </g>
        <g transform="matrix(50,0,0,50,329.919,105.93)">
            <path d="M0.233,-0.565L0.233,-0.423L0.462,-0.423L0.462,-0.291L0.233,-0.291L0.233,-0.137L0.492,-0.137L0.492,-0L0.062,-0L0.062,-0.702L0.492,-0.702L0.492,-0.565L0.233,-0.565Z" style="fill:white;fill-rule:nonzero;"/>
        </g>
    </g>
</svg>
