<svg xmlns="http://www.w3.org/2000/svg" width="165" height="50" fill="none"><path fill="#2D87F1" fill-rule="evenodd" d="M4.232 5.986h29.761c2.337 0 4.232 1.905 4.232 4.254v22.678c0 2.35-1.895 4.255-4.232 4.255h-12.46a4.22 4.22 0 0 0-2.895 1.15l-5.235 4.93c-2.234 2.105-5.889.513-5.889-2.565a3.507 3.507 0 0 0-3.497-3.516h-.26C1.682 37.172 0 35.483 0 33.397V10.24c0-2.35 1.895-4.254 4.232-4.254Zm13.755 5.318a2.122 2.122 0 0 0-2.116 2.127v14.89c0 1.175.947 2.127 2.116 2.127h2.116a2.122 2.122 0 0 0 2.116-2.127V13.43a2.122 2.122 0 0 0-2.116-2.127h-2.116Zm-8.464 6.381a2.122 2.122 0 0 0-2.117 2.127v8.509c0 1.175.948 2.127 2.117 2.127h2.116a2.122 2.122 0 0 0 2.116-2.127v-8.509a2.122 2.122 0 0 0-2.116-2.127H9.523Zm14.813 6.382c0-1.175.947-2.128 2.116-2.128h2.116c1.168 0 2.116.953 2.116 2.128v4.254a2.122 2.122 0 0 1-2.116 2.127h-2.116a2.122 2.122 0 0 1-2.117-2.127v-4.255Z" clip-rule="evenodd"/><path fill="#EA4C4C" d="M89.838 15.634c-2.567-2.193-6.346-1.773-8.726.653l-.887.933-.933-.933c-2.333-2.426-6.16-2.846-8.726-.653-2.94 2.52-3.08 6.999-.466 9.705l9.052 9.333c.56.606 1.54.606 2.1 0l9.052-9.333c2.613-2.706 2.473-7.186-.466-9.705Z"/><g fill-rule="evenodd" clip-path="url(#a)" clip-rule="evenodd"><path fill="#008BF6" d="M142.576 11.734c10.474 0 18.965 8.492 18.961 18.966 0 10.474-8.491 18.965-18.965 18.961-10.458 0-18.942-8.463-18.961-18.922-.024-10.474 8.447-18.98 18.921-19.005h.044Z"/><path fill="#57B6FF" d="M133.895 46.894a2.725 2.725 0 0 1 1.342.154c2.205.891 4.56 1.354 6.939 1.354 5.059 0 9.889-2.102 13.344-5.795.38-.356.883-.554 1.406-.546a18.317 18.317 0 0 1-14.35 7.01 18.12 18.12 0 0 1-8.681-2.177Z"/><path fill="#006CBF" d="M142.576 11.734c.59 0 1.16 0 1.734.084a3.472 3.472 0 0 1-1.37 0 2.838 2.838 0 0 1-.364-.084Zm-11.1 34.416a19.02 19.02 0 0 1-6.868-9.132c.131-.008.262-.008.392 0h.59a3.12 3.12 0 0 1 .827-1.952c.258-.19.547-.325.855-.4a3.668 3.668 0 0 1-1.108-2.224c0-.297-.044-.606-.044-.927l-1.975-.99a1.911 1.911 0 0 1-.542-.435 18.868 18.868 0 0 1 2.157-8.21l1.694-.154a29.61 29.61 0 0 1 1.406-4.157 19.25 19.25 0 0 1 4.037-3.202 19.09 19.09 0 0 1 1.334-.182c1.897-.15 3.801-.13 5.689.071.701.055 1.405.127 2.058.21.087-.226.186-.451.297-.67.479-.898 2.993-.573 4.216-.38a5.44 5.44 0 0 0-.325-1.353c.436.08.851.174 1.259.273.115.432.182.875.198 1.322 1.259.301 3.246.919 3.345 1.821.012.234.012.467 0 .7.661.183 1.326.365 1.987.575 1.322.396 2.621.863 3.892 1.405a19 19 0 0 1 3.285 19.741l-.887.072c-.118.297-.261.57-.388.835-.7 1.44-2.493 2.003-3.946 2.268-2.015.3-4.058.372-6.088.21a55.973 55.973 0 0 1-7.213-.97 53.668 53.668 0 0 1-7.022-1.833 30.879 30.879 0 0 1-4.002-1.607v3.313a4.022 4.022 0 0 1 1.405 1.572 5.35 5.35 0 0 0 3.032-1.29c.479-.389 1.805.181 1.251 1.777a5.366 5.366 0 0 1-4.774 3.891l-.02.016-.004-.004Z"/><path fill="#fff" d="M142.576 15.729c8.277 0 14.987 6.71 14.987 14.987 0 8.277-6.71 14.987-14.987 14.987-8.277 0-14.975-6.698-14.987-14.968-.012-8.277 6.69-14.998 14.967-15.01h.02v.004Z"/><path fill="#385661" d="M135.657 37.912a5.666 5.666 0 0 1-6.504.99l-2.142 4.255c3.048 1.679 8.535 1.904 10.086-3.44.491-1.722-.95-2.24-1.44-1.805Z"/><path fill="#385661" d="M136.08 38.466a6.281 6.281 0 0 1-6.611 1.322l-1.551 3.076a8.237 8.237 0 0 0 3.467.701 5.124 5.124 0 0 0 5.063-4.002 1.115 1.115 0 0 0-.071-.97.433.433 0 0 0-.301-.127h.004Z"/><path fill="#598291" d="M134.049 39.745a6.306 6.306 0 0 1-4.58 0l-.637 1.287a5.488 5.488 0 0 0 5.233-.547c.392-.336.309-.736-.016-.736v-.004Z"/><path fill="#385661" d="M147.112 40.465a7.67 7.67 0 0 1 2.676 4.37l3.626-.997c-.926-2.712-3.653-5.372-6.321-5.617l.019 2.248v-.004Z"/><path fill="#385661" d="M147.785 40.145a8.41 8.41 0 0 1 2.514 3.847l2.213-.61c-.879-1.875-2.502-3.847-4.616-4.58l-.111 1.343Z"/><path fill="#598291" d="m151.467 43.676 1.045-.281a9.636 9.636 0 0 0-2.977-3.71c-.138.127-.083.42.071.582a7.495 7.495 0 0 1 1.861 3.409ZM137.141 44.681c0-.308-.055-.633-.071-.942-.079-.51.15-1.021.59-1.298.946-.471 1.951-.8 2.992-.978l.8-.19h.245l.8.17c1.037.182 2.046.51 2.993.978.447.277.684.8.597 1.322 0 .364-.043.7-.083 1.08 0 .171 0 .337-.055.508-1.105.249-2.237.376-3.373.372-1.86.004-3.705-.34-5.435-1.018v-.004Z"/><path fill="#D3E8EF" d="M137.759 44.907a23.854 23.854 0 0 1-.099-1.207.7.7 0 0 1 .308-.753 13.604 13.604 0 0 1 3.595-1.06 13.57 13.57 0 0 1 3.59 1.06.709.709 0 0 1 .297.753c-.044.633-.071 1.167-.154 1.75a14.868 14.868 0 0 1-7.537-.543Z"/><path fill="#fff" d="M138.606 42.639a20.566 20.566 0 0 1 2.957-.752v3.772a15.414 15.414 0 0 1-2.748-.443 76.33 76.33 0 0 1-.209-2.577Z"/><path fill="#598291" d="M135.249 43.795a28.545 28.545 0 0 1-.352-2.415c-.056-.546-.084-1.097-.127-1.635-.143-.78.21-1.568.887-1.98 1.144-.7 3.174-1.16 4.5-1.452.408-.099.816-.182 1.224-.265l.198-.044.174.044c.407.083.815.17 1.223.265 1.326.297 3.357.7 4.501 1.453a1.968 1.968 0 0 1 .886 1.96c-.043.541-.071 1.088-.126 1.634a28.158 28.158 0 0 1-.562 3.44c-1.635.602-3.361.91-5.099.915a15.166 15.166 0 0 1-7.327-1.916v-.004Z"/><path fill="#598291" d="M136.29 44.317a26.89 26.89 0 0 1-.606-4.643 1.08 1.08 0 0 1 .463-1.136c1.045-.653 3.373-1.172 5.431-1.607 2.039.435 4.375.954 5.424 1.607.435.265.479.645.463 1.136a27.381 27.381 0 0 1-.752 5.316s0 .083-.056.139a15.296 15.296 0 0 1-4.061.554 14.573 14.573 0 0 1-6.306-1.37v.004Z"/><path fill="#7EAABA" d="M137.561 44.836a34.819 34.819 0 0 1-.563-5.162 1.216 1.216 0 0 1 .353-1.136c.807-.653 2.612-1.172 4.216-1.607 1.579.435 3.384.954 4.215 1.607.309.293.444.724.353 1.136a34.879 34.879 0 0 1-.59 5.316 1.248 1.248 0 0 1-.198.443c-.906.17-1.829.254-2.755.254-1.714.02-3.416-.27-5.027-.851h-.004Z"/><path fill="#D3E8EF" d="M135.926 42.358c-.127-.907-.182-1.722-.254-2.684a1.08 1.08 0 0 1 .463-1.136c1.046-.653 3.373-1.172 5.432-1.607 2.038.435 4.374.954 5.423 1.607.435.265.479.645.463 1.136-.071.962-.127 1.761-.253 2.684-.943.206-1.893.356-2.851.45a.227.227 0 0 0-.198.183 1.938 1.938 0 0 1-.7 1.287c-.539.4-1.2.597-1.869.562a2.932 2.932 0 0 1-1.888-.563 1.981 1.981 0 0 1-.7-1.286.208.208 0 0 0-.198-.182 23.435 23.435 0 0 1-2.866-.451h-.004Z"/><path fill="#fff" d="M141.563 36.926c1.579.436 3.384.954 4.215 1.608.309.293.444.724.353 1.136-.056 1.045-.099 1.916-.21 2.921-.491.083-1.005.139-1.568.198a.227.227 0 0 0-.198.182c-.217 1.326-1.349 1.813-2.592 1.813s-2.395-.518-2.605-1.833a.208.208 0 0 0-.198-.182 22.916 22.916 0 0 1-1.568-.198 38.842 38.842 0 0 1-.209-2.921 1.215 1.215 0 0 1 .352-1.136c.835-.618 2.628-1.136 4.228-1.588Z"/><path fill="#0B87E8" d="M139.766 40.438h.918c.115 0 .206.095.21.21v1.82a.562.562 0 0 0 .661.661.703.703 0 0 0 .483-.138.683.683 0 0 0 .138-.519v-1.82c0-.115.095-.206.21-.21h.926c.111 0 .202.09.202.202v1.923c.036.46-.154.91-.514 1.2a2.239 2.239 0 0 1-1.469.42c-.53.04-1.057-.111-1.488-.42a1.478 1.478 0 0 1-.515-1.2v-1.916a.235.235 0 0 1 .226-.21h.012v-.003Z"/><path fill="#57B6FF" d="M139.765 40.572a.103.103 0 0 0-.11.1v1.915c-.028.428.146.843.471 1.124.411.282.906.416 1.405.388v-.886a.859.859 0 0 1-.574-.182.878.878 0 0 1-.182-.59V40.62c0-.06-.056-.103-.111-.1h-.891v.048h-.008v.004Z"/><path fill="#3C942C" d="m142.05 36.788-.456 1.86c.388.662 1.98 1.552 2.755 1.85.337.138.618.17.852-.084.562-.582 1.041-2.22 1.136-3.638h-4.283v.016l-.004-.004Z"/><path fill="#3C942C" d="M145.842 36.788c0 .297-.072.574-.111.843a5.97 5.97 0 0 1-.879 2.45l-.055.044a.56.56 0 0 1-.266-.071 8.716 8.716 0 0 1-2.41-1.505l.455-1.761h3.266Z"/><path fill="#82E371" d="M145.533 38.466a3.974 3.974 0 0 1-.701 1.588l-.055.043a.551.551 0 0 1-.265-.071 9.477 9.477 0 0 1-2.296-1.405h.364c.38.25.8.427 1.243.534a4.639 4.639 0 0 1-.527-.546c.745 0 1.505-.044 2.241-.139l-.004-.004Z"/><path fill="#3C942C" d="m141.001 36.788.463 1.86c-.392.662-1.987 1.552-2.759 1.85-.337.138-.61.17-.851-.084-.563-.582-1.042-2.22-1.137-3.638h4.284v.016-.004Z"/><path fill="#3C942C" d="M137.224 36.788c0 .297.071.574.111.843.111.871.408 1.71.879 2.45l.055.044a.552.552 0 0 0 .265-.071 8.706 8.706 0 0 0 2.411-1.505l-.479-1.761h-3.242Z"/><path fill="#82E371" d="M137.517 38.466c.115.574.352 1.117.701 1.588l.055.043a.551.551 0 0 0 .265-.071 9.458 9.458 0 0 0 2.296-1.405h-.372a4.03 4.03 0 0 1-1.243.534c.19-.17.368-.352.535-.546-.745 0-1.505-.044-2.241-.139h.004v-.004Z"/><path fill="#3C942C" d="M143.114 36.788a10.957 10.957 0 0 1-.352 2.41 2.155 2.155 0 0 1-2.478 0 10.957 10.957 0 0 1-.352-2.41h3.182Z"/><path fill="#3C942C" d="M140.355 36.954c.036.681.135 1.354.297 2.015a1.791 1.791 0 0 0 1.762 0c.162-.661.261-1.338.297-2.015h-2.356Z"/><path fill="#82E371" d="M140.537 38.466c0 .17.072.325.111.491a1.792 1.792 0 0 0 1.762 0c.043-.17.071-.336.111-.506h-1.271c-.253.015-.479.015-.717.015h.004Z"/><path fill="#598291" d="m124.897 19.184 4.501-.47-1.524 11.582-4.263-2.058a1.55 1.55 0 0 1-.915-1.09 11.945 11.945 0 0 1 1.026-7.263c.209-.388.443-.618 1.171-.7h.004Z"/><path fill="#D3E8EF" d="m127.122 28.887 1.172-9.081c-.392.043-3.512.336-3.666.435a.655.655 0 0 0-.071.111 10.988 10.988 0 0 0-.95 6.615.565.565 0 0 0 .364.392l3.147 1.524h.004v.004Z"/><path fill="#fff" d="m127.122 28.887.083-.646-3.23-1.314c-.238-.099-.408-.977-.519-1.943a8.387 8.387 0 0 0 .155 1.987.565.565 0 0 0 .364.392l3.147 1.524Zm.499-3.836.7-5.245c-.391.043-3.511.336-3.665.435a.599.599 0 0 0-.071.111 11.392 11.392 0 0 0-.978 3.147l4.01 1.552h.004Z"/><path fill="#D3E8EF" d="m123.935 22.003 1.243 1.073c.174.15.262.376.238.605-.127 1.287-.281 2.502-.325 4.216a26.407 26.407 0 0 1-.198-4.29c0-.056 0-.1-.043-.128l-.851-.78-.111-.443c0-.087.016-.17.043-.253h.004Z"/><path fill="#7EAABA" d="m123.864 22.256 1.061.934c.174.15.261.377.237.606a24.084 24.084 0 0 0-.146 3.583v.526l-.546-.261a1.468 1.468 0 0 0 0-.265 24.948 24.948 0 0 1 .162-3.658c0-.055 0-.1-.044-.127l-.863-.772c.044-.19.099-.38.139-.562v-.004Z"/><path fill="#598291" d="M144.571 4.332c3.064 2.755 3.274 6.322 1.876 9.987l-1.06-.435c1.223-3.23 1.136-6.266-1.568-8.701l.752-.851Z"/><path fill="#3C942C" d="M143.585.595a3.59 3.59 0 0 1 2.918 4.153 3.59 3.59 0 0 1-4.153 2.917 3.59 3.59 0 0 1-2.917-4.152V3.5a3.585 3.585 0 0 1 4.149-2.91h.003v.004Z"/><path fill="#3C942C" d="M143.459 1.312a2.85 2.85 0 0 1 2.3 3.313 2.85 2.85 0 0 1-3.314 2.3 2.849 2.849 0 0 1-2.303-3.294 2.867 2.867 0 0 1 3.313-2.32h.004Z"/><path fill="#82E371" d="M145.478 2.764a2.858 2.858 0 0 1-1.152 3.876 2.858 2.858 0 0 1-4.097-1.679 2.8 2.8 0 0 0 2.015 1.453 2.876 2.876 0 0 0 3.313-2.323 3.015 3.015 0 0 0-.083-1.327h.004Zm-2.712-1.215c.99-.043 1.678.57 1.54 1.405a2.161 2.161 0 0 1-2.043 1.552c-.989.056-1.678-.574-1.54-1.37a2.176 2.176 0 0 1 2.043-1.587Z"/><path fill="#006CBF" d="M145.181 16.39c-.978-.182-4.216-.855-4.347-2.106a10.06 10.06 0 0 1 .836-4.517c.534-1.069 3.808-.562 4.762-.392.954.17 4.216.828 4.318 2.003a9.907 9.907 0 0 1-.752 4.529c-.534 1.132-3.836.653-4.817.483Z"/><path fill="#006CBF" d="M149.927 11.465c-.337-.59-2.973-1.18-3.654-1.286a18.757 18.757 0 0 0-2.157-.254 4.454 4.454 0 0 0-1.722.21 9.112 9.112 0 0 0-.744 4.038c.071.297 1.278.772 1.559.855 1.406.479 4.082.962 5.522.669.175-.024.341-.083.491-.174a9.146 9.146 0 0 0 .701-4.062h.004v.004Z"/><path fill="#57B6FF" d="M146.277 10.167a18.735 18.735 0 0 0-2.157-.253 4.455 4.455 0 0 0-1.722.21 9.113 9.113 0 0 0-.744 4.037c.043.11.308.297.392.352 1.021.519 2.121.867 3.257 1.034l.97-5.38h.004Z"/><path fill="#598291" d="m163.275 25.965-4.061-1.987-2.53 11.4 4.715-.478a1.528 1.528 0 0 0 1.235-.7 11.836 11.836 0 0 0 1.524-7.178c-.056-.455-.21-.724-.887-1.053h.004v-.004Z"/><path fill="#D3E8EF" d="m157.888 34.314 1.987-8.942c.352.17 3.202 1.524 3.285 1.666v.127a11.086 11.086 0 0 1-1.405 6.547.552.552 0 0 1-.479.253l-3.392.353h.004v-.004Z"/><path fill="#fff" d="m157.888 34.314.138-.633 3.468-.135c.265 0 .701-.78 1.168-1.65a8.215 8.215 0 0 1-.844 1.804.551.551 0 0 1-.479.254l-3.455.356.004.004Zm.843-3.76 1.144-5.178c.352.17 3.202 1.524 3.285 1.666v.127a11.015 11.015 0 0 1-.17 3.285l-4.263.1h.004Z"/><path fill="#D3E8EF" d="m163.232 28.942-1.524.59a.694.694 0 0 0-.42.483c-.325 1.25-.598 2.45-1.144 4.073a26.838 26.838 0 0 0 1.666-3.974c0-.056 0-.083.084-.11l1.053-.444.253-.38c.02-.072.036-.17.036-.238h-.004Z"/><path fill="#7EAABA" d="m163.204 29.195-1.314.515a.698.698 0 0 0-.42.491 23.414 23.414 0 0 1-1.116 3.4l-.21.491.606-.071c.043-.083.071-.17.11-.253.464-1.14.84-2.316 1.133-3.512 0-.043 0-.083.083-.099l1.072-.42c.028-.161.044-.344.056-.541Z"/><path fill="#598291" d="M141.369 38.067a53.974 53.974 0 0 1-7.094-1.706 24.794 24.794 0 0 1-5.617-2.45c-1.259-.78-2.732-2.004-2.858-3.667-.372-4.853.997-12.552 3.139-16.926.792-1.667 3.147-2.157 4.742-2.351a30.89 30.89 0 0 1 5.708-.084c2.213.147 4.418.416 6.603.816 2.193.372 4.363.87 6.496 1.488a31.321 31.321 0 0 1 5.344 2.03c1.441.702 3.468 2.004 3.666 3.849.506 4.853-.835 12.528-2.85 16.982-.701 1.508-2.478 2.157-3.935 2.458a24.784 24.784 0 0 1-6.096.38 55.01 55.01 0 0 1-7.248-.816v-.003Z"/><path fill="#BDD6DE" d="M141.563 36.926c-4.861-.85-9.6-2.303-12.335-4.01-1.405-.886-2.268-1.832-2.34-2.81-.328-4.497.935-12.01 3.041-16.301.451-.926 1.888-1.477 3.903-1.726 3.103-.388 7.6-.064 12.002.7 4.402.764 8.673 2.031 11.484 3.44 1.805.927 2.965 1.932 3.075 2.95.507 4.762-.898 12.255-2.759 16.372-.364.887-1.516 1.516-3.127 1.833-3.147.673-8.099.388-12.952-.451h.008v.003Z"/><path fill="#fff" d="M127.181 23.891a35.187 35.187 0 0 1 2.755-10.086c.452-.926 1.889-1.477 3.904-1.726 3.103-.388 7.6-.064 12.002.7 4.402.764 8.728 2.015 11.531 3.429 1.805.926 2.965 1.931 3.076 2.949a35.191 35.191 0 0 1-.887 10.415 9.745 9.745 0 0 1-2.106.372c-.273 0-.57.055-.879.07a27.973 27.973 0 0 0 1.445-7.52c0-.48-.309-.634-.752-.788a55.217 55.217 0 0 0-7.22-2.157.4.4 0 0 0-.452.21 19.024 19.024 0 0 1-1.789 3.174c-.788.855-6.868-.226-7.303-1.286a20.12 20.12 0 0 1-.59-3.595.376.376 0 0 0-.344-.336 53.003 53.003 0 0 0-7.514-.444c-.479 0-.855 0-.989.472a28.153 28.153 0 0 0-1.235 7.584l-.808-.364a10.373 10.373 0 0 1-1.849-1.073h.004Zm14.386 13.035c-4.861-.85-9.6-2.303-12.335-4.01-1.405-.886-2.268-1.832-2.34-2.81v-.527c.083.254.206.491.365.701a5.601 5.601 0 0 0 2.105 1.987c2.732 1.679 7.474 3.104 12.327 3.963 4.853.855 9.833 1.132 12.945.483a5.879 5.879 0 0 0 2.692-1.144 2.88 2.88 0 0 0 .57-.519 5.752 5.752 0 0 1-.226.491c-.408.887-1.56 1.516-3.155 1.833-3.147.673-8.099.388-12.952-.451h.004v.003Z"/><path fill="#BDD6DE" d="M138.732 11.972c.317.776.701 1.524 1.152 2.233a19.83 19.83 0 0 0 5.408 1.579c1.844.388 3.736.51 5.617.364.574-.463 1.286-1.16 1.832-1.706a6.333 6.333 0 0 1-1.694 2.352c-1.971.17-3.954.05-5.894-.353a20.337 20.337 0 0 1-5.617-1.678 9.471 9.471 0 0 1-.808-2.795h.004v.004Z"/><path fill="#7EAABA" d="M138.732 11.972a8.85 8.85 0 0 0 .927 2.53 21.265 21.265 0 0 0 5.577 1.623c1.908.391 3.864.518 5.807.38a8.675 8.675 0 0 0 1.722-2.059l.634.198c-.463.7-1.509 2.225-2.197 2.506-2.031.166-4.074.04-6.069-.38a21.618 21.618 0 0 1-5.835-1.722c-.562-.507-1.025-2.257-1.215-3.104.202.016.428.028.653.028h-.004Z"/><path fill="#1E2432" d="M143.827 24.089c1.496.261 3.594.344 3.99-.253a27.714 27.714 0 0 0 1.734-4.216.37.37 0 0 1 .451-.265 45.299 45.299 0 0 1 7.83 2.537c.463.198.816.364.788.978a39.298 39.298 0 0 1-2.692 11.939c-.21.498-1.623.89-2.05.99a21.332 21.332 0 0 1-5.332.38 47.646 47.646 0 0 1-6.75-.701 48.936 48.936 0 0 1-6.575-1.623 21.872 21.872 0 0 1-4.916-2.17c-.372-.237-1.532-1.088-1.56-1.642a40.322 40.322 0 0 1 1.579-12.157c.171-.582.563-.625 1.061-.653a46.864 46.864 0 0 1 8.23.3.375.375 0 0 1 .329.408c-.064 1.52 0 3.044.198 4.553.182.689 2.185 1.334 3.681 1.603v-.008h.004Z"/><path fill="#2D3956" d="M158.026 22.45a34.837 34.837 0 0 1-1.005 6.548c-.337 1.243-.97 1.16-2.312 1.326-5.617.7-18.205-1.524-23.225-4.101-1.199-.61-1.848-1.117-1.722-2.023a49.614 49.614 0 0 1 1.291-6.496c.035-.155.233-.21.372-.226a47.186 47.186 0 0 1 8.19.309.125.125 0 0 1 .111.139c0 .463-.044.926 0 1.405.02 1.08.099 2.165.233 3.238.226 1.017 2.942 1.635 3.864 1.785.918.147 3.681.519 4.255-.356.072-.11.139-.253.198-.364a27.696 27.696 0 0 0 1.568-3.903.123.123 0 0 1 .146-.1h.008a46.48 46.48 0 0 1 7.791 2.522c.122.056.213.17.237.301v-.004Zm-29.028 7.027v.526c0 .408 1.132 1.235 1.469 1.441 4.916 3.21 17.627 5.443 23.339 4.117.388-.083 1.722-.48 1.885-.851.071-.155.138-.325.209-.491a6.713 6.713 0 0 1-1.666.606c-5.859 1.326-18.843-.954-23.878-4.216a6.019 6.019 0 0 1-1.354-1.117v-.015h-.004Z"/><path fill="#82E371" d="M134.342 23.357a11.412 11.412 0 0 0-.645 3.638c0 1.82 3.274 2.422 3.792.7.357-1.183.57-2.403.638-3.638.11-1.848-3.175-2.45-3.785-.7Zm18.633 3.285a11.195 11.195 0 0 1-.645 3.638c-.626 1.722-3.899 1.16-3.785-.669a15.19 15.19 0 0 1 .638-3.638c.534-1.75 3.82-1.152 3.792.67ZM145.264 31.31c-.701 3.032-5.36 2.22-4.964-.871a10.01 10.01 0 0 0 4.964.87Z"/><path fill="#598291" d="M128.527 37.136a4.143 4.143 0 1 1-4.121 4.165v-.028a4.142 4.142 0 0 1 4.121-4.137Z"/><path fill="#D3E8EF" d="M128.527 37.84a3.457 3.457 0 0 1 .04 6.912 3.457 3.457 0 0 1-3.476-3.436v-.043a3.459 3.459 0 0 1 3.436-3.436v.004Z"/><path fill="#fff" d="M128.527 37.84a3.456 3.456 0 0 1 3.511 3.401v.036c0 .396-.067.788-.197 1.16-.673.25-1.39.372-2.106.364-2.106 0-3.911-1.045-4.489-2.494a3.46 3.46 0 0 1 3.281-2.466Z"/><path fill="#598291" d="M125.558 34.342a3.271 3.271 0 0 1 .863-2.015 3.174 3.174 0 0 1 1.849-.562c1.009 0 2.494.392 2.521 1.634.056 2.676 0 5.344 0 8.009.024.494-.11.985-.38 1.405-1.179 1.868-4.995 1.975-6.796 1.01a1.446 1.446 0 0 1-.745-.701 14.726 14.726 0 0 1-.542-2.957 17.18 17.18 0 0 1-.043-3.286c.063-.792.261-2.023 1.159-2.288.487-.135.99-.218 1.497-.238.206-.023.411-.023.617-.008v-.003Z"/><path fill="#598291" d="M126.029 38.466c-.542-1.405-.57-5.15.507-5.985 1.188-.926 3.99-.633 4.03.89.055 2.677 0 5.345 0 8.02.071 2.95-4.735 3.393-6.884 2.257a1.22 1.22 0 0 1-.645-.59l2.992-4.592Z"/><path fill="#D3E8EF" d="M126.774 38.565c-.701-1.187-.574-4.995.17-5.561.863-.701 2.977-.436 2.992.415.056 2.24 0 5.206.044 8.008.055 2.376-4.715 2.684-6.322 1.453l3.12-4.31h-.004v-.005Z"/><path fill="#fff" d="M126.267 35.573c.043-1.132.265-2.185.617-2.478a2.817 2.817 0 0 1 2.459-.19c.043.835.031 1.666-.036 2.502-.079.716-2.114.605-3.04.17v-.004Z"/><path fill="#598291" d="M123.484 34.777a5.557 5.557 0 0 1 1.441-.226c.99-.043 3.638.155 3.863 1.453.309 1.86.309 3.757 0 5.617-.261 1.572-3.891 1.532-4.473.855l-.669.392-.605.198a15.666 15.666 0 0 1-.547-2.93 18.234 18.234 0 0 1-.043-3.245c.079-.681.233-1.888 1.033-2.122v.008Z"/><path fill="#D3E8EF" d="M123.654 35.39c1.821-.526 4.39.044 4.517.701a16.35 16.35 0 0 1 0 5.416c-.127.823-3.246 1.678-4.517 1.353-.799-2.565-.843-7.204 0-7.473v.004Z"/><path fill="#fff" d="M123.654 35.39a6.635 6.635 0 0 1 3.737.127c.242 1.738.222 3.5-.055 5.233-.099.745-2.395 1.48-3.848 1.48-.633-2.64-.574-6.614.17-6.84h-.004Z"/><path fill="#598291" d="M122.74 38.846a11.76 11.76 0 0 1 6.088 0l-.138.574a10.931 10.931 0 0 0-5.78 0l-.17-.574ZM151.229 41.978a3.28 3.28 0 1 1-3.273 3.285v-.008a3.274 3.274 0 0 1 3.265-3.281h.008v.004Z"/><path fill="#D3E8EF" d="M151.229 42.496a2.734 2.734 0 0 1 2.74 2.724 2.732 2.732 0 0 1-5.463.016v-.008a2.71 2.71 0 0 1 2.692-2.732h.031Z"/><path fill="#fff" d="M151.229 42.496a2.716 2.716 0 0 1 2.72 2.704v.027c0 .187-.016.373-.055.555a2.72 2.72 0 0 1-4.129-2.32v-.016c0-.19.016-.376.055-.562.428-.25.915-.384 1.413-.392h-.004v.004Z"/><path fill="#598291" d="M146.503 46.558c-.507-.084-1.009-.281-1.108-.8a12.54 12.54 0 0 1-.139-2.91c.044-.66.788-.926 1.405-1.045a3.726 3.726 0 0 1 1.904-1.167 8.454 8.454 0 0 1 3.44.605c1.089.38 1.045 2.43 1.018 3.373-.044.808-.171 2.557-.816 3.104-1.16.981-5.245 1.068-5.534-.353a7.827 7.827 0 0 1-.17-.807Z"/><path fill="#598291" d="M148.747 42.425a9.249 9.249 0 0 1 0 3.301c-.146.59-1.045.662-1.551.662-.507 0-1.469-.044-1.58-.701-.158-.942-.206-1.9-.138-2.85.043-.634 1.041-.828 1.524-.915.483-.087 1.571-.162 1.749.507h-.004v-.004Z"/><path fill="#D3E8EF" d="M148.264 42.567c-.098-.391-2.268 0-2.295.325-.068.914-.028 1.833.118 2.74.072.336 2.059.364 2.158 0a8.37 8.37 0 0 0 .019-3.065Z"/><path fill="#598291" d="M151.918 41.451c.962.325.918 2.375.879 3.175-.04.8-.154 2.466-.701 2.949a4.39 4.39 0 0 1-2.339.661c-.701 0-2.676 0-2.866-.899a17.235 17.235 0 0 1-.281-4.88c.055-.701 1.405-1.48 2.015-1.58a8.005 8.005 0 0 1 3.293.574Z"/><path fill="#D3E8EF" d="M151.704 41.906a7.82 7.82 0 0 0-3.068-.554 2.63 2.63 0 0 0-1.595 1.132 16.772 16.772 0 0 0 .265 4.743c.127.59 3.429.772 4.398-.044.626-.515.935-5.023 0-5.273v-.004Z"/><path fill="#fff" d="M151.704 41.906a8.277 8.277 0 0 0-2.984-.57v5.499a7.02 7.02 0 0 0 3.309-.337c.38-1.413.428-4.398-.325-4.592Zm-4.453.238a.821.821 0 0 0-.226.324 16.736 16.736 0 0 0 .266 4.743c.126.59 3.428.772 4.398-.044a.593.593 0 0 0 .154-.202c-1.025.764-4.216.582-4.354 0a16.763 16.763 0 0 1-.266-4.746s.044-.044.056-.071h-.028v-.004Z"/><path fill="#598291" d="M146.74 44.511a6.778 6.778 0 0 1 2.233-.479c.17 0 .139.535 0 .535a6.194 6.194 0 0 0-2.106.45l-.127-.506Z"/><path fill="#7EAABA" d="M152.045 46.486a19.48 19.48 0 0 1-.828-.364.142.142 0 0 1-.083-.17 13.295 13.295 0 0 0 0-3.076.16.16 0 0 1 .099-.17c.277-.139.566-.257.855-.364a.445.445 0 0 1 .091.324c-.261.084-.498.198-.736.297.107.966.107 1.94 0 2.91.226.11.451.21.701.309a.4.4 0 0 1-.099.308v-.004Z"/></g><defs><clipPath id="a"><path fill="#fff" d="M122.225.536h42V49.66h-42z"/></clipPath></defs></svg>