<svg width="132" height="128" viewBox="0 0 132 128" fill="none" xmlns="http://www.w3.org/2000/svg">
<g opacity="0.06">
<path opacity="0.6" d="M131.895 59.7469C131.895 73.2541 131.895 73.2541 123.655 94.8405C99.2508 125.251 81.3587 129.756 37.977 127.504C26.9892 125.342 -4.15173 112.748 1.48278 94.8405C6.21156 79.8027 3.79522 85.345 12.2184 73.2541C17.1283 66.2047 24.5981 50.7192 26.133 42.1915C31.6769 11.4371 52.1068 0.253339 80.408 0.00295112C119.363 -0.338925 131.895 29.0777 131.895 59.7469Z" fill="#1F6CF1"/>
</g>
<path d="M6.65774 120.63C6.66782 120.56 6.67791 120.489 6.69807 120.419C6.87953 119.511 7.3332 118.725 7.69613 117.888C8.13971 116.87 8.58329 115.852 9.03695 114.834C9.92411 112.797 10.8214 110.761 11.7085 108.734C11.7388 108.674 11.7589 108.613 11.7892 108.553C13.3115 105.075 14.7934 101.597 16.356 98.1389C16.6686 97.4433 16.5778 96.9795 16.1544 96.3847C10.6601 88.6725 8.16995 80.0529 8.50264 70.6066C9.15793 51.8855 23.6045 35.3218 42.0232 32.1361C53.5362 30.1501 64.051 32.499 73.578 39.2536C74.3139 39.7778 74.6264 39.6366 75.4128 38.6285C76.7939 36.8743 78.4069 35.3218 80.1409 33.9306C80.7458 33.4467 81.0281 32.9829 81.0382 32.2873C81.0583 30.6541 81.1793 29.021 81.1894 27.3979C81.1894 26.5208 81.4515 25.8352 82.0766 25.2102C87.1374 20.1695 92.1882 15.1087 97.2289 10.0478C97.9245 9.3421 98.7108 8.99934 99.6484 9.43283C100.576 9.86633 100.858 10.6728 100.798 11.6709C100.616 14.403 100.475 17.1249 100.273 19.857C100.223 20.603 100.374 20.8248 101.201 20.7542C103.883 20.5123 106.574 20.4014 109.256 20.2098C110.284 20.1393 111.121 20.4115 111.585 21.3894C112.049 22.3572 111.635 23.1334 110.96 23.8089C105.909 28.8697 100.858 33.9104 95.8175 38.9713C95.263 39.5258 94.648 39.7979 93.8617 39.808C92.1479 39.8383 90.434 39.9391 88.7202 39.9693C88.0246 39.9794 87.5608 40.2314 87.0568 40.9674C85.9176 42.6308 84.5263 44.1128 82.8629 45.2621C81.4011 46.2601 81.4011 46.5626 81.9455 47.2582C88.196 55.2628 91.1397 64.3663 90.7062 74.488C90.3634 82.422 87.8532 89.6705 83.2359 96.1529C82.6714 96.9493 82.6008 97.5643 82.994 98.4514C85.8672 104.934 88.7101 111.436 91.5329 117.939C92.6217 120.439 92.2688 123.504 90.6256 125.863C88.6194 128.766 82.2681 127.466 78.5178 127.466C78.5178 127.466 78.5178 127.466 78.5078 127.466C75.937 127.153 74.5559 125.5 73.6687 123.231C72.0758 119.169 70.4326 115.126 68.8095 111.063C68.2651 109.692 68.1441 109.672 66.8537 110.257C62.5489 112.212 58.0627 113.412 53.3345 113.866C45.955 114.582 38.9686 113.221 32.2645 110.196C31.1051 109.672 30.9539 109.702 30.47 110.932C28.7965 115.096 27.1229 119.259 25.4797 123.433C25.0159 124.603 24.2699 125.53 23.3928 126.407C22.5662 127.224 21.4875 127.204 20.4894 127.456C20.4894 127.456 20.4793 127.456 20.4692 127.456H11.1641C11.1641 127.456 11.154 127.456 11.144 127.456C9.81322 127.133 8.50264 126.538 7.66588 125.419C7.14165 124.713 6.8997 123.897 6.71823 123.05C6.55693 122.254 6.52668 121.427 6.64766 120.63H6.65774Z" fill="#3797E4"/>
<path d="M49.3634 110.095C40.5321 110.095 32.6081 107.353 25.773 101.748C17.8288 95.2355 13.2317 86.7772 12.2034 76.5647C10.2174 56.775 23.6559 39.6669 42.1653 36.0679C52.3878 34.0818 61.8341 36.1082 70.5141 41.8445C71.3106 42.3687 71.482 42.7014 70.6855 43.4071C69.4959 44.4656 68.387 45.6149 67.3083 46.7743C66.7941 47.3288 66.4211 47.3691 65.7759 46.9557C60.5437 43.6188 54.7973 42.0965 48.5972 42.2074C34.3724 42.4594 21.7606 53.3675 19.4519 67.4109C16.7401 83.9746 26.9727 99.0361 43.365 102.615C59.7876 106.204 76.6839 94.7717 79.4866 78.1979C80.908 69.7901 79.2144 62.0677 74.3249 55.0713C73.8612 54.4059 73.8309 54.0228 74.4459 53.4582C75.6758 52.3291 76.8553 51.1294 77.9945 49.9096C78.4986 49.3753 78.7305 49.4358 79.164 50.0003C83.2368 55.3434 85.7572 61.3519 86.5435 68.0057C87.7231 78.0467 85.3741 87.2409 79.2446 95.306C72.9538 103.593 64.5661 108.432 54.2428 109.853C53.4363 109.964 52.6197 110.045 51.8132 110.085C50.9966 110.126 50.18 110.085 49.3735 110.085L49.3634 110.095Z" fill="#D5E2E9"/>
<path d="M52.9513 98.7339C50.9955 98.8751 49.0195 98.7541 47.0738 98.4617C44.624 98.0887 42.2146 97.4133 39.9059 96.5059C34.6233 94.4393 29.9657 90.8301 26.9715 85.981C25.1166 82.9767 23.937 79.5894 23.4632 76.0912C21.5276 61.9671 31.0948 49.063 44.8055 46.5729C51.2072 45.4135 57.1854 46.5225 62.8411 49.6679C63.5468 50.061 63.7484 50.3534 63.073 50.9885C61.8229 52.158 60.6131 53.3778 59.4336 54.6279C58.9295 55.1723 58.5061 55.2025 57.8407 54.89C49.8764 51.2103 40.9544 52.9544 35.0266 59.3863C32.0021 62.6628 30.3488 66.5643 29.9657 71.0505C29.0987 81.1621 36.075 90.3765 46.3681 92.0701C56.6713 93.7638 66.4704 87.1403 68.7185 76.8573C69.8174 71.8469 69.0008 67.149 66.4805 62.7232C66.1579 62.1587 66.0671 61.7756 66.6216 61.2715C67.8515 60.1424 69.0311 58.9528 70.1702 57.7229C70.7449 57.1079 71.0574 57.1382 71.5111 57.8439C74.1121 61.826 75.6142 66.1408 75.8461 70.9093C76.1888 77.9764 73.981 84.7712 69.2024 90.0438C66.2587 93.3001 62.5487 96.1128 58.3851 97.6048C56.6209 98.2399 54.7861 98.5928 52.9311 98.7238L52.9513 98.7339Z" fill="#FEFEFE"/>
<path d="M55.7646 58.2573C53.9701 60.0619 52.2462 61.7858 50.5323 63.5198C50.1896 63.8726 49.7762 63.7517 49.383 63.7617C44.5037 63.8726 40.6727 67.9556 40.7937 72.8955C40.9147 77.7144 45.0783 81.5554 50.0182 81.3941C54.7363 81.2328 58.5672 77.0792 58.416 72.3107C58.416 72.2301 58.4361 72.1394 58.4059 72.0688C57.5994 70.2037 58.668 69.0746 59.9483 67.9657C60.775 67.2499 61.5714 66.4635 62.2771 65.6268C63.003 64.78 63.3357 65.0018 63.7591 65.8889C67.6404 73.9036 63.8498 83.7229 55.5528 87.08C44.7154 91.4654 33.152 83.0575 33.9686 71.3933C34.6844 61.1204 45.29 54.2852 54.9278 57.8843C55.1798 57.975 55.4218 58.1061 55.7746 58.2674L55.7646 58.2573Z" fill="#D5E2E9"/>
<path d="M19.5122 100.67C21.9116 102.998 24.2606 105.126 26.922 106.87C27.6076 107.313 27.1237 107.827 26.9523 108.261C25.2788 112.495 23.575 116.729 21.8813 120.953C21.7402 121.296 21.5991 121.629 21.468 121.972C21.0748 123.071 20.3288 123.575 19.1392 123.544C17.0624 123.504 14.9857 123.544 12.9089 123.534C10.9531 123.514 10.0861 122.234 10.8624 120.429C12.8383 115.832 14.8647 111.255 16.8709 106.668C17.7278 104.702 18.5948 102.746 19.5021 100.67H19.5122Z" fill="#D5E2E9"/>
<path d="M83.1458 123.545C82.0469 123.545 80.9481 123.545 79.8492 123.545C78.8814 123.545 78.2059 123.111 77.8531 122.224C75.9275 117.425 74.0322 112.626 72.0865 107.838C71.8647 107.283 72.0361 107.011 72.4595 106.739C74.8488 105.166 77.0163 103.311 79.0225 101.285C79.577 100.72 79.7988 100.811 80.0911 101.487C82.3998 106.83 84.7387 112.153 87.0674 117.486C87.511 118.494 87.9647 119.492 88.378 120.51C89.0736 122.254 88.2167 123.504 86.3214 123.535C85.2629 123.555 84.2043 123.535 83.1458 123.535V123.545Z" fill="#D5E2E9"/>
<path d="M96.5031 16.5404C96.3821 18.5164 96.2309 20.3814 96.1603 22.2465C96.0797 24.172 96.7652 24.8172 98.6706 24.8172C100.546 24.8172 102.391 24.3938 104.286 24.5753C104.346 25.0793 103.903 25.2608 103.641 25.5229C100.546 28.6481 97.3701 31.7028 94.3457 34.8986C93.3879 35.9067 92.2891 35.937 91.1499 36.0075C89.3655 36.1084 87.5609 36.0479 85.7765 36.1084C85.0809 36.1285 84.8389 35.8967 84.8692 35.201C84.97 32.842 85.0406 30.483 85.1011 28.1239C85.1111 27.7711 85.2624 27.5089 85.5043 27.267C89.053 23.7284 92.6016 20.1798 96.1502 16.6412C96.2007 16.5908 96.2914 16.6009 96.5132 16.5404H96.5031Z" fill="#D5E2E9"/>
<path d="M82.2785 40.2824C82.0567 40.4336 81.8248 40.5445 81.6534 40.7159C72.2475 50.1117 62.8416 59.5177 53.4356 68.9236C52.8005 69.5587 51.742 70.1838 51.2581 69.72C50.8246 69.3168 51.4395 68.1776 52.0746 67.5424C61.4806 58.1466 70.8865 48.7407 80.2924 39.3448C80.4941 39.1432 80.6755 38.6492 81.0385 38.9315C81.472 39.2642 81.7845 39.738 82.2785 40.2824Z" fill="#FEFEFE"/>
<path d="M54.3325 73.2183C54.0704 75.5672 52.4271 77.2206 50.0882 77.4726C47.8905 77.7045 45.6726 76.3133 44.9971 74.2768C44.231 71.9682 45.0375 69.7704 47.2251 68.4397C47.0437 69.7604 46.4993 70.8794 46.1363 72.0387C45.8641 72.936 45.6827 73.8232 46.4085 74.5591C47.1646 75.3354 48.082 75.1942 49.0196 74.8716C50.7536 74.2768 52.4977 73.7425 54.2317 73.1779C54.2619 73.1779 54.3023 73.2082 54.3325 73.2284V73.2183Z" fill="#D5E2E9"/>
<path d="M105.926 92.7761C106.411 92.7761 106.902 92.7761 107.387 92.7761C107.78 92.8253 108.166 92.8674 108.56 92.9306C110.764 93.3028 112.709 94.2156 114.381 95.6972C116.41 97.5017 117.681 99.7487 118.158 102.424C118.235 102.845 118.278 103.274 118.341 103.702V105.162C118.292 105.556 118.25 105.942 118.186 106.335C117.737 108.961 116.55 111.201 114.584 112.992C111.888 115.449 108.7 116.439 105.084 115.983C102.781 115.695 100.744 114.754 98.9959 113.223C96.9315 111.412 95.6466 109.158 95.1621 106.469C95.0848 106.04 95.0427 105.598 94.9795 105.162C94.9795 104.678 94.9795 104.193 94.9795 103.702C95.0146 103.428 95.0427 103.147 95.0778 102.873C95.4078 100.528 96.3487 98.4567 97.9286 96.6872C99.7472 94.672 101.987 93.4151 104.669 92.9517C105.084 92.8814 105.512 92.8323 105.926 92.7761ZM113.763 110.759C116.88 107.452 117.295 101.56 113.405 97.6703C109.543 93.8013 103.195 93.9488 99.5226 98.0705C95.8993 102.136 96.6998 107.817 99.5647 110.752C103.37 106.532 110.146 106.595 113.763 110.752V110.759ZM101.145 112.198C104.761 114.649 109.072 114.438 112.162 112.191C109.269 108.912 104.023 108.933 101.145 112.198Z" fill="#B6D3E2"/>
<path d="M106.649 106.552C104.29 106.538 102.401 104.636 102.415 102.276C102.429 99.952 104.346 98.0632 106.684 98.0772C109.037 98.0913 110.918 99.9942 110.904 102.346C110.897 104.678 108.98 106.567 106.649 106.559V106.552ZM104.536 102.311C104.536 103.477 105.484 104.425 106.649 104.432C107.822 104.432 108.784 103.484 108.784 102.311C108.784 101.139 107.829 100.191 106.649 100.198C105.484 100.198 104.536 101.153 104.536 102.311Z" fill="#B6D3E2"/>
<path d="M53.2133 3.40298C59.6455 3.41517 64.8889 8.67071 64.8645 15.0786C64.8401 21.5047 59.6089 26.7237 53.2011 26.7176C46.7688 26.7115 41.5255 21.4498 41.5499 15.042C41.5743 8.60974 46.8054 3.39078 53.2133 3.40298ZM62.5415 15.0481C62.5233 9.92057 58.3286 5.732 53.2133 5.7259C48.0919 5.7259 43.8606 9.95106 43.8789 15.0725C43.8911 20.1939 48.0919 24.3946 53.2072 24.3946C58.3286 24.3946 62.5598 20.1634 62.5415 15.0481Z" fill="#B6D3E2"/>
<path d="M54.3718 13.9017C54.5181 13.9017 54.6279 13.9017 54.7376 13.9017C56.1887 13.9017 57.6336 13.8956 59.0847 13.9078C59.9078 13.9139 60.4077 14.6456 60.1517 15.426C59.9992 15.9015 59.5663 16.2186 59.0237 16.2186C58.1519 16.2247 57.2739 16.2186 56.4021 16.2186C55.3656 16.2186 54.323 16.2186 53.2865 16.2186C52.4756 16.2186 52.055 15.804 52.055 14.9931C52.055 13.0787 52.0489 11.1642 52.055 9.24979C52.055 8.37183 52.7561 7.87189 53.5975 8.11576C54.0974 8.26209 54.3718 8.65229 54.3718 9.26198C54.3718 10.6826 54.3718 12.1031 54.3718 13.5237C54.3718 13.6335 54.3718 13.7371 54.3718 13.8956V13.9017Z" fill="#B6D3E2"/>
<path d="M117.138 73.3429H106.814C106.442 73.1854 106.031 73.0804 105.702 72.8529C104.981 72.3586 104.696 71.6193 104.696 70.7487C104.701 65.1318 104.696 59.5148 104.696 53.8978C104.696 53.1235 104.692 52.3492 104.696 51.5749C104.714 50.1444 105.751 49.0683 107.137 49.0639C110.366 49.0595 113.59 49.0595 116.818 49.0683C117.772 49.0683 118.502 49.5145 118.944 50.3632C119.106 50.6781 119.163 51.0456 119.268 51.3868V71.02C119.255 71.0812 119.237 71.1424 119.229 71.2037C119.146 71.8511 118.844 72.3761 118.345 72.796C117.991 73.0935 117.575 73.2379 117.138 73.3472V73.3429ZM106.577 60.8972C106.577 63.8238 106.577 66.7504 106.577 69.677C106.577 70.4863 107.006 70.9325 107.785 70.9325C110.576 70.9325 113.367 70.9325 116.153 70.9325C116.949 70.9325 117.369 70.4906 117.369 69.6682C117.369 63.8369 117.369 58.0056 117.369 52.1699C117.369 51.3474 116.945 50.9056 116.149 50.9056C113.358 50.9056 110.567 50.9056 107.78 50.9056C107.649 50.9056 107.509 50.91 107.382 50.945C106.866 51.0806 106.573 51.5137 106.573 52.1174C106.573 55.044 106.573 57.9706 106.573 60.8972H106.577Z" fill="#B6D3E2"/>
<path d="M111.984 68.894C111.315 68.894 110.781 68.3734 110.768 67.6997C110.755 67.0348 111.315 66.4661 111.98 66.4705C112.641 66.4705 113.183 67.0217 113.187 67.6822C113.187 68.3472 112.649 68.8896 111.984 68.894Z" fill="#B6D3E2"/>
<path d="M112.987 53.1807C113.364 53.1807 113.744 53.1807 114.12 53.1807C114.527 53.1807 114.798 53.43 114.803 53.78C114.803 54.1299 114.527 54.3837 114.129 54.3881C113.364 54.3881 112.602 54.3881 111.837 54.3881C111.439 54.3881 111.163 54.1343 111.168 53.78C111.168 53.4388 111.439 53.1894 111.828 53.185C112.213 53.1807 112.598 53.185 112.987 53.185V53.1807Z" fill="#B6D3E2"/>
<path d="M109.741 53.1849C110.064 53.1805 110.353 53.4517 110.357 53.7754C110.366 54.0948 110.082 54.3835 109.763 54.3879C109.439 54.3923 109.154 54.121 109.146 53.7973C109.137 53.4823 109.421 53.1892 109.741 53.1849Z" fill="#B6D3E2"/>
</svg>
