<svg width="15" height="16" viewBox="0 0 15 16" fill="none" xmlns="http://www.w3.org/2000/svg">
<path fill-rule="evenodd" clip-rule="evenodd" d="M1.66667 1.25H13.3333C13.5635 1.25 13.75 1.43655 13.75 1.66667V11.25C13.75 11.4801 13.5635 11.6667 13.3333 11.6667H5.57986C4.92268 11.6667 4.28475 11.8886 3.76948 12.2965L1.92529 13.7565C1.65214 13.9728 1.25 13.7782 1.25 13.4298V1.66667C1.25 1.43655 1.43655 1.25 1.66667 1.25ZM13.3333 0H1.66667C0.746192 0 0 0.746193 0 1.66667V13.4298C0 14.8234 1.60856 15.6016 2.70117 14.7366L4.54536 13.2766C4.8398 13.0435 5.20433 12.9167 5.57986 12.9167H13.3333C14.2538 12.9167 15 12.1705 15 11.25V1.66667C15 0.746192 14.2538 0 13.3333 0ZM3.74999 4.79166C3.28975 4.79166 2.91666 5.16475 2.91666 5.62499V9.16666C2.91666 9.62689 3.28975 9.99999 3.74999 9.99999H4.58332C5.04356 9.99999 5.41666 9.62689 5.41666 9.16666V5.62499C5.41666 5.16475 5.04356 4.79166 4.58332 4.79166H3.74999ZM6.25003 3.74999C6.25003 3.28975 6.62313 2.91666 7.08337 2.91666H7.9167C8.37694 2.91666 8.75003 3.28975 8.75003 3.74999V9.16666C8.75003 9.62689 8.37694 9.99999 7.9167 9.99999H7.08337C6.62313 9.99999 6.25003 9.62689 6.25003 9.16666V3.74999ZM10.4167 6.45837C9.95645 6.45837 9.58335 6.83147 9.58335 7.29171V9.16671C9.58335 9.62694 9.95645 10 10.4167 10H11.25C11.7103 10 12.0834 9.62694 12.0834 9.16671V7.29171C12.0834 6.83147 11.7103 6.45837 11.25 6.45837H10.4167Z" fill="white"/>
</svg>
