<?xml version="1.0" encoding="utf-8"?>
<!-- Generator: Adobe Illustrator 17.0.0, SVG Export Plug-In . SVG Version: 6.00 Build 0)  -->
<!DOCTYPE svg PUBLIC "-//W3C//DTD SVG 1.1//EN" "http://www.w3.org/Graphics/SVG/1.1/DTD/svg11.dtd">
<svg version="1.1" id="Layer_1" xmlns="http://www.w3.org/2000/svg" xmlns:xlink="http://www.w3.org/1999/xlink" x="0px" y="0px"
	 width="256px" height="256px" viewBox="0 0 256 256" enable-background="new 0 0 256 256" xml:space="preserve">
<rect id="background" x="-0.046" fill="#1D2428" width="256" height="256"/>
<g id="EDD_logo">
	<path fill="#FFFFFF" d="M190.113,65.838c-15.904-15.908-37.885-25.746-62.155-25.746c-24.277,0-46.254,9.838-62.162,25.746
		C49.884,81.746,40.046,103.726,40.046,128s9.838,46.254,25.746,62.162c15.908,15.911,37.888,25.746,62.166,25.746
		c24.274,0,46.255-9.842,62.159-25.746c15.908-15.911,25.746-37.888,25.746-62.162S206.02,81.746,190.113,65.838z M187.212,187.257
		c-15.164,15.164-36.116,24.545-59.257,24.545s-44.097-9.38-59.261-24.545C53.529,172.093,44.148,151.142,44.148,128
		s9.381-44.093,24.545-59.258c15.164-15.164,36.116-24.545,59.258-24.545s44.093,9.381,59.257,24.545
		c15.164,15.164,24.545,36.116,24.545,59.258C211.756,151.142,202.376,172.093,187.212,187.257z"/>
	<path fill="#FFFFFF" d="M203.577,127.267c-0.395-41.43-34.097-74.894-75.619-74.894c-41.526,0-75.231,33.467-75.619,74.898
		l34.676-34.676l11.629,11.629l-25.376,25.376h109.38l-25.376-25.376l11.629-11.629L203.577,127.267z M127.954,114.272L95.732,80.46
		h21.413V63.794c0-4.326,4.864-7.872,10.809-7.872c5.945,0,10.809,3.542,10.809,7.872V80.46h21.413L127.954,114.272z"/>
	<path fill="#FFFFFF" d="M137.353,164.702c-1.718-1.117-3.894-2.121-6.52-2.992c-2.007-0.692-3.659-1.344-4.949-1.974
		c-1.278-0.623-2.223-1.315-2.828-2.044c-0.619-0.743-0.909-1.634-0.909-2.655c0-0.817,0.245-1.593,0.773-2.33
		c0.517-0.733,1.326-1.344,2.425-1.806c1.11-0.469,2.524-0.722,4.278-0.729c1.414,0.007,2.703,0.121,3.872,0.322
		c1.154,0.209,2.176,0.461,3.051,0.751c0.886,0.3,1.604,0.582,2.168,0.85l1.952-5.886c-1.18-0.594-2.659-1.084-4.454-1.484
		c-1.524-0.337-3.267-0.531-5.249-0.597v-6.091h-5.366v6.395c-0.861,0.139-1.685,0.326-2.465,0.553
		c-1.974,0.582-3.67,1.392-5.073,2.447c-1.392,1.051-2.469,2.282-3.209,3.692c-0.743,1.41-1.11,2.963-1.124,4.634
		c0.011,1.934,0.516,3.637,1.516,5.11c1,1.473,2.425,2.751,4.264,3.846c1.831,1.091,4.018,2.033,6.545,2.824
		c1.897,0.608,3.443,1.242,4.622,1.894c1.18,0.648,2.044,1.363,2.582,2.143c0.55,0.78,0.82,1.685,0.81,2.696
		c0,1.11-0.326,2.073-0.963,2.905c-0.63,0.82-1.56,1.465-2.784,1.923c-1.223,0.462-2.718,0.689-4.469,0.703
		c-1.425-0.011-2.806-0.132-4.154-0.363c-1.337-0.242-2.593-0.553-3.751-0.941c-1.169-0.388-2.19-0.81-3.077-1.282l-1.886,6.132
		c0.853,0.469,1.919,0.89,3.223,1.278c1.304,0.392,2.74,0.703,4.311,0.941c1.56,0.231,3.165,0.348,4.795,0.363l0.286-0.004v6.296
		h5.366v-6.802c0.681-0.132,1.33-0.289,1.945-0.472c2.154-0.648,3.941-1.531,5.355-2.663c1.425-1.121,2.48-2.421,3.179-3.886
		c0.696-1.465,1.044-3.015,1.044-4.666c0-1.934-0.414-3.645-1.267-5.117C140.36,167.127,139.078,165.826,137.353,164.702z"/>
</g>
</svg>
